G75*
%MOIN*%
%OFA0B0*%
%FSLAX25Y25*%
%IPPOS*%
%LPD*%
%AMOC8*
5,1,8,0,0,1.08239X$1,22.5*
%
%ADD10C,0.06000*%
%ADD11OC8,0.15800*%
%ADD12R,0.07099X0.07887*%
%ADD13R,0.07887X0.07099*%
%ADD14R,0.07099X0.07898*%
%ADD15R,0.07898X0.07099*%
%ADD16R,0.06706X0.09068*%
%ADD17R,0.09068X0.06706*%
%ADD18OC8,0.09300*%
%ADD19C,0.11824*%
%ADD20C,0.06800*%
%ADD21R,0.07099X0.08674*%
%ADD22R,0.03950X0.06706*%
%ADD23R,0.10643X0.12611*%
%ADD24R,0.07887X0.07493*%
%ADD25R,0.06312X0.07887*%
%ADD26C,0.04762*%
D10*
X0096000Y0085700D02*
X0096000Y0090900D01*
X0106000Y0090900D02*
X0106000Y0085700D01*
X0116000Y0085700D02*
X0116000Y0090900D01*
X0126000Y0090900D02*
X0126000Y0085700D01*
X0136000Y0085700D02*
X0136000Y0090900D01*
X0148800Y0090300D02*
X0154000Y0090300D01*
X0154000Y0080300D02*
X0148800Y0080300D01*
X0148800Y0100300D02*
X0154000Y0100300D01*
X0154000Y0110300D02*
X0148800Y0110300D01*
X0136000Y0115700D02*
X0136000Y0120900D01*
X0126000Y0120900D02*
X0126000Y0115700D01*
X0116000Y0115700D02*
X0116000Y0120900D01*
X0106000Y0120900D02*
X0106000Y0115700D01*
X0096000Y0115700D02*
X0096000Y0120900D01*
X0096000Y0130700D02*
X0096000Y0135900D01*
X0106000Y0135900D02*
X0106000Y0130700D01*
X0116000Y0130700D02*
X0116000Y0135900D01*
X0126000Y0135900D02*
X0126000Y0130700D01*
X0136000Y0130700D02*
X0136000Y0135900D01*
X0148800Y0140300D02*
X0154000Y0140300D01*
X0154000Y0130300D02*
X0148800Y0130300D01*
X0148800Y0120300D02*
X0154000Y0120300D01*
X0184000Y0120300D02*
X0189200Y0120300D01*
X0189200Y0130300D02*
X0184000Y0130300D01*
X0184000Y0140300D02*
X0189200Y0140300D01*
X0189200Y0150300D02*
X0184000Y0150300D01*
X0154000Y0150300D02*
X0148800Y0150300D01*
X0136000Y0160700D02*
X0136000Y0165900D01*
X0126000Y0165900D02*
X0126000Y0160700D01*
X0116000Y0160700D02*
X0116000Y0165900D01*
X0106000Y0165900D02*
X0106000Y0160700D01*
X0096000Y0160700D02*
X0096000Y0165900D01*
X0076000Y0165900D02*
X0076000Y0160700D01*
X0066000Y0160700D02*
X0066000Y0165900D01*
X0056000Y0165900D02*
X0056000Y0160700D01*
X0046000Y0160700D02*
X0046000Y0165900D01*
X0036000Y0165900D02*
X0036000Y0160700D01*
X0036000Y0135900D02*
X0036000Y0130700D01*
X0046000Y0130700D02*
X0046000Y0135900D01*
X0056000Y0135900D02*
X0056000Y0130700D01*
X0066000Y0130700D02*
X0066000Y0135900D01*
X0076000Y0135900D02*
X0076000Y0130700D01*
X0184000Y0110300D02*
X0189200Y0110300D01*
X0189200Y0100300D02*
X0184000Y0100300D01*
X0184000Y0090300D02*
X0189200Y0090300D01*
X0189200Y0080300D02*
X0184000Y0080300D01*
X0176000Y0052900D02*
X0176000Y0047700D01*
X0166000Y0047700D02*
X0166000Y0052900D01*
X0156000Y0052900D02*
X0156000Y0047700D01*
X0146000Y0047700D02*
X0146000Y0052900D01*
X0146000Y0022900D02*
X0146000Y0017700D01*
X0156000Y0017700D02*
X0156000Y0022900D01*
X0166000Y0022900D02*
X0166000Y0017700D01*
X0176000Y0017700D02*
X0176000Y0022900D01*
D11*
X0106000Y0016300D03*
X0081000Y0016300D03*
X0011000Y0079300D03*
X0011000Y0105300D03*
X0011000Y0136300D03*
X0011000Y0161300D03*
X0241000Y0151300D03*
X0241000Y0071300D03*
D12*
X0054512Y0050800D03*
X0043488Y0050800D03*
D13*
X0093000Y0042812D03*
X0093000Y0031788D03*
X0217000Y0087788D03*
X0217000Y0098812D03*
X0217000Y0116788D03*
X0217000Y0127812D03*
D14*
X0167598Y0064300D03*
X0156402Y0064300D03*
X0102598Y0058300D03*
X0091402Y0058300D03*
X0089402Y0073300D03*
X0100598Y0073300D03*
X0048598Y0075300D03*
X0037402Y0075300D03*
D15*
X0062000Y0107702D03*
X0062000Y0118898D03*
X0231000Y0116702D03*
X0231000Y0127898D03*
X0231000Y0098898D03*
X0231000Y0087702D03*
D16*
X0128087Y0058800D03*
X0113913Y0058800D03*
X0075087Y0074800D03*
X0060913Y0074800D03*
X0051087Y0091300D03*
X0036913Y0091300D03*
X0036913Y0105300D03*
X0051087Y0105300D03*
X0149913Y0164300D03*
X0164087Y0164300D03*
X0171913Y0164300D03*
X0186087Y0164300D03*
D17*
X0202000Y0129387D03*
X0202000Y0115213D03*
X0202000Y0100387D03*
X0202000Y0086213D03*
X0076000Y0106213D03*
X0076000Y0120387D03*
D18*
X0218200Y0025300D03*
X0243800Y0025300D03*
D19*
X0207693Y0151875D03*
X0050213Y0025891D03*
D20*
X0019000Y0015300D02*
X0013000Y0015300D01*
X0013000Y0035300D02*
X0019000Y0035300D01*
X0192000Y0030300D02*
X0198000Y0030300D01*
X0198000Y0020300D02*
X0192000Y0020300D01*
X0192000Y0040300D02*
X0198000Y0040300D01*
X0198000Y0050300D02*
X0192000Y0050300D01*
X0192000Y0060300D02*
X0198000Y0060300D01*
D21*
X0124500Y0045430D03*
X0124500Y0024170D03*
D22*
X0080906Y0052190D03*
X0075000Y0052190D03*
X0069094Y0052190D03*
D23*
X0075000Y0041166D03*
D24*
X0032071Y0051300D03*
X0015929Y0051300D03*
D25*
X0063307Y0092300D03*
X0076693Y0092300D03*
D26*
X0113000Y0069300D03*
X0102000Y0047300D03*
X0144000Y0066300D03*
X0145000Y0040300D03*
X0051000Y0119300D03*
X0086000Y0147300D03*
M02*
