%
M48
M72
T01C0.02362
T02C0.03200
T03C0.03600
T04C0.04000
T05C0.05500
T06C0.11024
%
T01
X102000Y47300
X113000Y69300
X144000Y66300
X145000Y40300
X51000Y119300
X86000Y147300
T02
X76000Y133300
X66000Y133300
X56000Y133300
X46000Y133300
X36000Y133300
X36000Y163300
X46000Y163300
X56000Y163300
X66000Y163300
X76000Y163300
X96000Y163300
X106000Y163300
X116000Y163300
X126000Y163300
X136000Y163300
X154000Y150300
X154000Y140300
X154000Y130300
X154000Y120300
X154000Y110300
X154000Y100300
X154000Y90300
X154000Y80300
X136000Y88300
X126000Y88300
X116000Y88300
X106000Y88300
X96000Y88300
X96000Y118300
X106000Y118300
X116000Y118300
X126000Y118300
X136000Y118300
X136000Y133300
X126000Y133300
X116000Y133300
X106000Y133300
X96000Y133300
X184000Y130300
X184000Y120300
X184000Y110300
X184000Y100300
X184000Y90300
X184000Y80300
X176000Y50300
X166000Y50300
X156000Y50300
X146000Y50300
X146000Y20300
X156000Y20300
X166000Y20300
X176000Y20300
X184000Y140300
X184000Y150300
T03
X218200Y25300
X243800Y25300
T04
X16000Y15300
X16000Y35300
X195000Y30300
X195000Y20300
X195000Y40300
X195000Y50300
X195000Y60300
T05
X241000Y71300
X241000Y151300
X106000Y16300
X81000Y16300
X11000Y79300
X11000Y105300
X11000Y136300
X11000Y161300
T06
X50213Y25891
X207693Y151875
M30
