G75*
%MOIN*%
%OFA0B0*%
%FSLAX25Y25*%
%IPPOS*%
%LPD*%
%AMOC8*
5,1,8,0,0,1.08239X$1,22.5*
%
%ADD10C,0.00200*%
%ADD11C,0.05200*%
%ADD12OC8,0.15000*%
%ADD13OC8,0.08500*%
%ADD14R,0.04600X0.06300*%
%ADD15R,0.06300X0.04600*%
%ADD16C,0.06000*%
%ADD17C,0.03200*%
%ADD18C,0.01600*%
%ADD19C,0.02400*%
%ADD20C,0.03962*%
D10*
X0109700Y0075137D02*
X0110067Y0074770D01*
X0109700Y0075137D02*
X0109700Y0075871D01*
X0110067Y0076238D01*
X0110434Y0076238D01*
X0110801Y0075871D01*
X0110801Y0075137D01*
X0111168Y0074770D01*
X0111535Y0074770D01*
X0111902Y0075137D01*
X0111902Y0075871D01*
X0111535Y0076238D01*
X0111902Y0077714D02*
X0111902Y0078448D01*
X0111902Y0078081D02*
X0110067Y0078081D01*
X0109700Y0077714D01*
X0109700Y0077347D01*
X0110067Y0076980D01*
X0109700Y0079190D02*
X0109700Y0080658D01*
X0109700Y0079924D02*
X0111902Y0079924D01*
X0111168Y0079190D01*
X0090163Y0103000D02*
X0089429Y0103000D01*
X0089062Y0103367D01*
X0089062Y0103734D01*
X0089429Y0104101D01*
X0090163Y0104101D01*
X0090530Y0104468D01*
X0090530Y0104835D01*
X0090163Y0105202D01*
X0089429Y0105202D01*
X0089062Y0104835D01*
X0087586Y0105202D02*
X0086852Y0105202D01*
X0087219Y0105202D02*
X0087219Y0103367D01*
X0087586Y0103000D01*
X0087953Y0103000D01*
X0088320Y0103367D01*
X0090163Y0103000D02*
X0090530Y0103367D01*
X0086110Y0103000D02*
X0084642Y0104468D01*
X0084642Y0104835D01*
X0085009Y0105202D01*
X0085743Y0105202D01*
X0086110Y0104835D01*
X0086110Y0103000D02*
X0084642Y0103000D01*
D11*
X0096000Y0090900D02*
X0096000Y0085700D01*
X0106000Y0085700D02*
X0106000Y0090900D01*
X0116000Y0090900D02*
X0116000Y0085700D01*
X0126000Y0085700D02*
X0126000Y0090900D01*
X0136000Y0090900D02*
X0136000Y0085700D01*
X0148800Y0090300D02*
X0154000Y0090300D01*
X0154000Y0080300D02*
X0148800Y0080300D01*
X0148800Y0100300D02*
X0154000Y0100300D01*
X0154000Y0110300D02*
X0148800Y0110300D01*
X0136000Y0115700D02*
X0136000Y0120900D01*
X0126000Y0120900D02*
X0126000Y0115700D01*
X0116000Y0115700D02*
X0116000Y0120900D01*
X0106000Y0120900D02*
X0106000Y0115700D01*
X0096000Y0115700D02*
X0096000Y0120900D01*
X0096000Y0130700D02*
X0096000Y0135900D01*
X0106000Y0135900D02*
X0106000Y0130700D01*
X0116000Y0130700D02*
X0116000Y0135900D01*
X0126000Y0135900D02*
X0126000Y0130700D01*
X0136000Y0130700D02*
X0136000Y0135900D01*
X0148800Y0140300D02*
X0154000Y0140300D01*
X0154000Y0130300D02*
X0148800Y0130300D01*
X0148800Y0120300D02*
X0154000Y0120300D01*
X0184000Y0120300D02*
X0189200Y0120300D01*
X0189200Y0130300D02*
X0184000Y0130300D01*
X0184000Y0140300D02*
X0189200Y0140300D01*
X0189200Y0150300D02*
X0184000Y0150300D01*
X0154000Y0150300D02*
X0148800Y0150300D01*
X0136000Y0160700D02*
X0136000Y0165900D01*
X0126000Y0165900D02*
X0126000Y0160700D01*
X0116000Y0160700D02*
X0116000Y0165900D01*
X0106000Y0165900D02*
X0106000Y0160700D01*
X0096000Y0160700D02*
X0096000Y0165900D01*
X0076000Y0165900D02*
X0076000Y0160700D01*
X0066000Y0160700D02*
X0066000Y0165900D01*
X0056000Y0165900D02*
X0056000Y0160700D01*
X0046000Y0160700D02*
X0046000Y0165900D01*
X0036000Y0165900D02*
X0036000Y0160700D01*
X0036000Y0135900D02*
X0036000Y0130700D01*
X0046000Y0130700D02*
X0046000Y0135900D01*
X0056000Y0135900D02*
X0056000Y0130700D01*
X0066000Y0130700D02*
X0066000Y0135900D01*
X0076000Y0135900D02*
X0076000Y0130700D01*
X0184000Y0110300D02*
X0189200Y0110300D01*
X0189200Y0100300D02*
X0184000Y0100300D01*
X0184000Y0090300D02*
X0189200Y0090300D01*
X0189200Y0080300D02*
X0184000Y0080300D01*
X0176000Y0052900D02*
X0176000Y0047700D01*
X0166000Y0047700D02*
X0166000Y0052900D01*
X0156000Y0052900D02*
X0156000Y0047700D01*
X0146000Y0047700D02*
X0146000Y0052900D01*
X0146000Y0022900D02*
X0146000Y0017700D01*
X0156000Y0017700D02*
X0156000Y0022900D01*
X0166000Y0022900D02*
X0166000Y0017700D01*
X0176000Y0017700D02*
X0176000Y0022900D01*
D12*
X0106000Y0016300D03*
X0081000Y0016300D03*
X0011000Y0079300D03*
X0011000Y0105300D03*
X0011000Y0136300D03*
X0011000Y0161300D03*
X0241000Y0151300D03*
X0241000Y0071300D03*
D13*
X0243800Y0025300D03*
X0218200Y0025300D03*
D14*
X0122500Y0077300D03*
X0116500Y0077300D03*
D15*
X0097000Y0100800D03*
X0097000Y0106800D03*
D16*
X0192000Y0060300D02*
X0198000Y0060300D01*
X0198000Y0050300D02*
X0192000Y0050300D01*
X0192000Y0040300D02*
X0198000Y0040300D01*
X0198000Y0030300D02*
X0192000Y0030300D01*
X0192000Y0020300D02*
X0198000Y0020300D01*
X0019000Y0015300D02*
X0013000Y0015300D01*
X0013000Y0035300D02*
X0019000Y0035300D01*
D17*
X0016000Y0035300D02*
X0016000Y0058300D01*
X0055000Y0097300D01*
X0091000Y0097300D01*
X0093000Y0099300D01*
X0095500Y0099300D01*
X0097000Y0100800D01*
X0100500Y0100800D01*
X0106000Y0095300D01*
X0118000Y0108300D01*
X0122000Y0108300D01*
X0125000Y0111300D01*
X0126000Y0118300D01*
X0116000Y0118300D02*
X0116000Y0120300D01*
X0106000Y0130300D01*
X0106000Y0133300D01*
X0093000Y0143300D02*
X0122000Y0143300D01*
X0126000Y0139300D01*
X0126000Y0133300D01*
X0143000Y0141300D02*
X0143000Y0113300D01*
X0139000Y0109300D01*
X0134000Y0109300D01*
X0127000Y0102300D01*
X0122000Y0102300D01*
X0116000Y0096300D01*
X0116000Y0088300D01*
X0116500Y0087800D02*
X0116500Y0077300D01*
X0122500Y0080800D02*
X0126000Y0084300D01*
X0106000Y0088300D02*
X0106000Y0095300D01*
X0107500Y0106800D02*
X0097000Y0106800D01*
X0107500Y0106800D02*
X0115000Y0114300D01*
X0115000Y0117300D01*
X0089000Y0139300D02*
X0093000Y0143300D01*
X0089000Y0139300D02*
X0082000Y0139300D01*
X0078000Y0143300D01*
X0060000Y0143300D01*
X0056000Y0139300D01*
X0056000Y0133300D01*
X0046000Y0133300D02*
X0046000Y0139300D01*
X0040000Y0145300D01*
X0020000Y0145300D01*
X0011000Y0136300D01*
X0011000Y0161300D02*
X0012000Y0163300D01*
X0022000Y0173300D01*
X0043000Y0173300D01*
X0045000Y0171300D01*
X0045000Y0164300D01*
X0046000Y0163300D01*
X0056000Y0163300D02*
X0056000Y0170300D01*
X0059000Y0173300D01*
X0121000Y0173300D01*
X0126000Y0168300D01*
X0126000Y0163300D01*
X0133000Y0151300D02*
X0110000Y0151300D01*
X0106000Y0155300D01*
X0106000Y0163300D01*
X0133000Y0151300D02*
X0143000Y0141300D01*
X0184000Y0090300D02*
X0204000Y0090300D01*
X0215000Y0079300D01*
X0215000Y0048300D01*
X0230000Y0033300D01*
X0230000Y0011300D01*
X0225000Y0006300D01*
X0115000Y0006300D01*
X0106000Y0016300D01*
X0120000Y0016300D01*
X0136000Y0032300D01*
X0136000Y0035300D01*
X0136000Y0040300D01*
X0146000Y0050300D01*
X0081000Y0016300D02*
X0074000Y0016300D01*
X0065000Y0007300D01*
X0024000Y0007300D01*
X0016000Y0015300D01*
D18*
X0102000Y0047300D02*
X0130000Y0047300D01*
X0144000Y0061300D01*
X0144000Y0066300D01*
X0150000Y0069300D02*
X0150000Y0060300D01*
X0155000Y0055300D01*
X0167000Y0067300D01*
X0202000Y0067300D01*
X0205000Y0064300D01*
X0205000Y0055300D01*
X0200000Y0050300D01*
X0195000Y0050300D01*
X0195000Y0040300D02*
X0187000Y0040300D01*
X0181000Y0034300D01*
X0137000Y0034300D01*
X0136000Y0035300D01*
X0145000Y0040300D02*
X0164000Y0040300D01*
X0166000Y0042300D01*
X0166000Y0050300D01*
X0166000Y0055300D01*
X0171000Y0060300D01*
X0195000Y0060300D01*
X0156000Y0054300D02*
X0156000Y0050300D01*
X0156000Y0054300D02*
X0155000Y0055300D01*
X0150000Y0069300D02*
X0143000Y0076300D01*
X0143000Y0096300D01*
X0147000Y0100300D01*
X0154000Y0100300D01*
X0163000Y0105300D02*
X0144000Y0105300D01*
X0137000Y0098300D01*
X0134000Y0098300D01*
X0131000Y0095300D01*
X0131000Y0072300D01*
X0128000Y0069300D01*
X0113000Y0069300D01*
X0122500Y0077300D02*
X0122500Y0080800D01*
X0126000Y0084300D02*
X0126000Y0088300D01*
X0116500Y0087800D02*
X0116000Y0088300D01*
X0154000Y0090300D02*
X0184000Y0090300D01*
X0163000Y0105300D02*
X0178000Y0120300D01*
X0184000Y0120300D01*
X0184000Y0130300D02*
X0154000Y0130300D01*
X0158000Y0130300D01*
X0162000Y0126300D01*
X0162000Y0117300D01*
X0155000Y0110300D01*
X0154000Y0110300D01*
X0116000Y0118300D02*
X0115000Y0117300D01*
X0086000Y0147300D02*
X0086000Y0156300D01*
X0079000Y0163300D01*
X0076000Y0163300D01*
X0051000Y0153300D02*
X0046000Y0158300D01*
X0046000Y0163300D01*
X0051000Y0153300D02*
X0051000Y0119300D01*
X0146000Y0027300D02*
X0149000Y0030300D01*
X0195000Y0030300D01*
X0195000Y0020300D02*
X0176000Y0020300D01*
X0146000Y0020300D02*
X0146000Y0027300D01*
D19*
X0006200Y0006500D02*
X0006200Y0068402D01*
X0006402Y0068200D01*
X0015598Y0068200D01*
X0022100Y0074702D01*
X0022100Y0083898D01*
X0015598Y0090400D01*
X0006402Y0090400D01*
X0006200Y0090198D01*
X0006200Y0094402D01*
X0006402Y0094200D01*
X0015598Y0094200D01*
X0022100Y0100702D01*
X0022100Y0109898D01*
X0015598Y0116400D01*
X0006402Y0116400D01*
X0006200Y0116198D01*
X0006200Y0125402D01*
X0006402Y0125200D01*
X0015598Y0125200D01*
X0022100Y0131702D01*
X0022100Y0140046D01*
X0022154Y0140100D01*
X0031432Y0140100D01*
X0030744Y0139412D01*
X0029800Y0137133D01*
X0029800Y0129467D01*
X0030744Y0127188D01*
X0032488Y0125444D01*
X0034767Y0124500D01*
X0037233Y0124500D01*
X0039512Y0125444D01*
X0041000Y0126932D01*
X0042488Y0125444D01*
X0044767Y0124500D01*
X0046600Y0124500D01*
X0046600Y0122793D01*
X0046269Y0122461D01*
X0045419Y0120410D01*
X0045419Y0118190D01*
X0046269Y0116139D01*
X0047839Y0114569D01*
X0049890Y0113719D01*
X0052110Y0113719D01*
X0054161Y0114569D01*
X0055731Y0116139D01*
X0056581Y0118190D01*
X0056581Y0120410D01*
X0055731Y0122461D01*
X0055400Y0122793D01*
X0055400Y0124500D01*
X0057233Y0124500D01*
X0059512Y0125444D01*
X0061000Y0126932D01*
X0062488Y0125444D01*
X0064767Y0124500D01*
X0067233Y0124500D01*
X0069512Y0125444D01*
X0071256Y0127188D01*
X0071770Y0128429D01*
X0071895Y0128184D01*
X0072339Y0127573D01*
X0072873Y0127039D01*
X0073484Y0126595D01*
X0074157Y0126252D01*
X0074876Y0126018D01*
X0075622Y0125900D01*
X0076000Y0125900D01*
X0076378Y0125900D01*
X0077124Y0126018D01*
X0077843Y0126252D01*
X0078516Y0126595D01*
X0079127Y0127039D01*
X0079661Y0127573D01*
X0080105Y0128184D01*
X0080448Y0128857D01*
X0080682Y0129576D01*
X0080800Y0130322D01*
X0080800Y0133300D01*
X0080800Y0134169D01*
X0080966Y0134100D01*
X0089800Y0134100D01*
X0089800Y0129467D01*
X0090744Y0127188D01*
X0092132Y0125800D01*
X0090744Y0124412D01*
X0089800Y0122133D01*
X0089800Y0114467D01*
X0090744Y0112188D01*
X0091295Y0111637D01*
X0090798Y0111139D01*
X0090250Y0109816D01*
X0090250Y0108902D01*
X0088693Y0108902D01*
X0088507Y0108825D01*
X0088322Y0108902D01*
X0084273Y0108902D01*
X0082913Y0108339D01*
X0081872Y0107298D01*
X0081505Y0106931D01*
X0080942Y0105571D01*
X0080942Y0102500D01*
X0053966Y0102500D01*
X0052054Y0101708D01*
X0050592Y0100246D01*
X0013054Y0062708D01*
X0011592Y0061246D01*
X0010800Y0059334D01*
X0010800Y0041533D01*
X0009261Y0040895D01*
X0007405Y0039039D01*
X0006400Y0036613D01*
X0006400Y0033987D01*
X0007405Y0031561D01*
X0009261Y0029705D01*
X0011687Y0028700D01*
X0020313Y0028700D01*
X0022739Y0029705D01*
X0024595Y0031561D01*
X0025600Y0033987D01*
X0025600Y0036613D01*
X0024595Y0039039D01*
X0022739Y0040895D01*
X0021200Y0041533D01*
X0021200Y0056146D01*
X0057154Y0092100D01*
X0089800Y0092100D01*
X0089800Y0084467D01*
X0090744Y0082188D01*
X0092488Y0080444D01*
X0094767Y0079500D01*
X0097233Y0079500D01*
X0099512Y0080444D01*
X0101000Y0081932D01*
X0102488Y0080444D01*
X0104767Y0079500D01*
X0106000Y0079500D01*
X0106000Y0078454D01*
X0106001Y0078452D01*
X0106000Y0078450D01*
X0106000Y0076611D01*
X0106001Y0076609D01*
X0106000Y0076607D01*
X0106000Y0074401D01*
X0106563Y0073041D01*
X0107939Y0071666D01*
X0107419Y0070410D01*
X0107419Y0068190D01*
X0108269Y0066139D01*
X0109839Y0064569D01*
X0111890Y0063719D01*
X0114110Y0063719D01*
X0116161Y0064569D01*
X0116493Y0064900D01*
X0128875Y0064900D01*
X0130492Y0065570D01*
X0133492Y0068570D01*
X0134730Y0069808D01*
X0135400Y0071425D01*
X0135400Y0079500D01*
X0137233Y0079500D01*
X0138600Y0080066D01*
X0138600Y0075425D01*
X0139270Y0073808D01*
X0140508Y0072570D01*
X0141692Y0071385D01*
X0140839Y0071031D01*
X0139269Y0069461D01*
X0138419Y0067410D01*
X0138419Y0065190D01*
X0139269Y0063139D01*
X0139442Y0062965D01*
X0128177Y0051700D01*
X0105493Y0051700D01*
X0105161Y0052031D01*
X0103110Y0052881D01*
X0100890Y0052881D01*
X0098839Y0052031D01*
X0097269Y0050461D01*
X0096419Y0048410D01*
X0096419Y0046190D01*
X0097269Y0044139D01*
X0098839Y0042569D01*
X0100890Y0041719D01*
X0103110Y0041719D01*
X0105161Y0042569D01*
X0105493Y0042900D01*
X0130875Y0042900D01*
X0132492Y0043570D01*
X0133730Y0044808D01*
X0141200Y0052277D01*
X0141200Y0050300D01*
X0146000Y0050300D01*
X0146000Y0050300D01*
X0141200Y0050300D01*
X0141200Y0047322D01*
X0141318Y0046576D01*
X0141552Y0045857D01*
X0141895Y0045184D01*
X0141967Y0045085D01*
X0141839Y0045031D01*
X0140269Y0043461D01*
X0139419Y0041410D01*
X0139419Y0039190D01*
X0140269Y0037139D01*
X0141839Y0035569D01*
X0143890Y0034719D01*
X0146110Y0034719D01*
X0148161Y0035569D01*
X0148493Y0035900D01*
X0164875Y0035900D01*
X0166492Y0036570D01*
X0167730Y0037808D01*
X0169730Y0039808D01*
X0170400Y0041425D01*
X0170400Y0043332D01*
X0171000Y0043932D01*
X0172488Y0042444D01*
X0174767Y0041500D01*
X0177233Y0041500D01*
X0179512Y0042444D01*
X0181256Y0044188D01*
X0182200Y0046467D01*
X0182200Y0054133D01*
X0181468Y0055900D01*
X0187066Y0055900D01*
X0187666Y0055300D01*
X0186405Y0054039D01*
X0185400Y0051613D01*
X0185400Y0048987D01*
X0186405Y0046561D01*
X0188261Y0044705D01*
X0188869Y0044453D01*
X0188612Y0044266D01*
X0188034Y0043688D01*
X0187553Y0043025D01*
X0187181Y0042296D01*
X0186928Y0041518D01*
X0186800Y0040709D01*
X0186800Y0040300D01*
X0195000Y0040300D01*
X0203200Y0040300D01*
X0203200Y0040709D01*
X0203072Y0041518D01*
X0202819Y0042296D01*
X0202447Y0043025D01*
X0201966Y0043688D01*
X0201388Y0044266D01*
X0201131Y0044453D01*
X0201739Y0044705D01*
X0203595Y0046561D01*
X0204381Y0048458D01*
X0207492Y0051570D01*
X0208730Y0052808D01*
X0209400Y0054425D01*
X0209400Y0065175D01*
X0208730Y0066792D01*
X0205730Y0069792D01*
X0204492Y0071030D01*
X0202875Y0071700D01*
X0166125Y0071700D01*
X0164508Y0071030D01*
X0155000Y0061523D01*
X0154400Y0062123D01*
X0154400Y0070175D01*
X0153730Y0071792D01*
X0151423Y0074100D01*
X0155233Y0074100D01*
X0157512Y0075044D01*
X0159256Y0076788D01*
X0160200Y0079067D01*
X0160200Y0081533D01*
X0159256Y0083812D01*
X0157512Y0085556D01*
X0156271Y0086070D01*
X0156516Y0086195D01*
X0157127Y0086639D01*
X0157661Y0087173D01*
X0158105Y0087784D01*
X0158448Y0088457D01*
X0158682Y0089176D01*
X0158800Y0089922D01*
X0158800Y0090300D01*
X0158800Y0090678D01*
X0158682Y0091424D01*
X0158448Y0092143D01*
X0158105Y0092816D01*
X0157661Y0093427D01*
X0157127Y0093961D01*
X0156516Y0094405D01*
X0156271Y0094530D01*
X0157512Y0095044D01*
X0159256Y0096788D01*
X0160200Y0099067D01*
X0160200Y0100900D01*
X0163875Y0100900D01*
X0165492Y0101570D01*
X0179727Y0115805D01*
X0180488Y0115044D01*
X0181729Y0114530D01*
X0181484Y0114405D01*
X0180873Y0113961D01*
X0180339Y0113427D01*
X0179895Y0112816D01*
X0179552Y0112143D01*
X0179318Y0111424D01*
X0179200Y0110678D01*
X0179200Y0110300D01*
X0184000Y0110300D01*
X0194000Y0110300D01*
X0194000Y0110678D01*
X0193882Y0111424D01*
X0193648Y0112143D01*
X0193305Y0112816D01*
X0192861Y0113427D01*
X0192327Y0113961D01*
X0191716Y0114405D01*
X0191471Y0114530D01*
X0192712Y0115044D01*
X0194456Y0116788D01*
X0195400Y0119067D01*
X0195400Y0121533D01*
X0194456Y0123812D01*
X0192712Y0125556D01*
X0191471Y0126070D01*
X0191716Y0126195D01*
X0192327Y0126639D01*
X0192861Y0127173D01*
X0193305Y0127784D01*
X0193648Y0128457D01*
X0193882Y0129176D01*
X0194000Y0129922D01*
X0194000Y0130300D01*
X0194000Y0130678D01*
X0193882Y0131424D01*
X0193648Y0132143D01*
X0193305Y0132816D01*
X0192861Y0133427D01*
X0192327Y0133961D01*
X0191716Y0134405D01*
X0191471Y0134530D01*
X0192712Y0135044D01*
X0194456Y0136788D01*
X0195400Y0139067D01*
X0195400Y0139459D01*
X0196167Y0138574D01*
X0200382Y0135865D01*
X0205188Y0134454D01*
X0210198Y0134454D01*
X0215004Y0135865D01*
X0219218Y0138574D01*
X0222499Y0142360D01*
X0224580Y0146916D01*
X0224580Y0146916D01*
X0225293Y0151875D01*
X0224580Y0156833D01*
X0222499Y0161390D01*
X0222499Y0161390D01*
X0219218Y0165176D01*
X0215004Y0167884D01*
X0210198Y0169296D01*
X0205188Y0169296D01*
X0200382Y0167884D01*
X0200382Y0167884D01*
X0196167Y0165176D01*
X0192887Y0161390D01*
X0190806Y0156833D01*
X0190740Y0156373D01*
X0190433Y0156500D01*
X0182767Y0156500D01*
X0180488Y0155556D01*
X0178744Y0153812D01*
X0177800Y0151533D01*
X0177800Y0149067D01*
X0178744Y0146788D01*
X0180232Y0145300D01*
X0178744Y0143812D01*
X0177800Y0141533D01*
X0177800Y0139067D01*
X0178744Y0136788D01*
X0180488Y0135044D01*
X0181729Y0134530D01*
X0181484Y0134405D01*
X0180873Y0133961D01*
X0180339Y0133427D01*
X0179895Y0132816D01*
X0179552Y0132143D01*
X0179318Y0131424D01*
X0179200Y0130678D01*
X0179200Y0130300D01*
X0184000Y0130300D01*
X0194000Y0130300D01*
X0184000Y0130300D01*
X0184000Y0130300D01*
X0184000Y0130300D01*
X0179200Y0130300D01*
X0179200Y0129922D01*
X0179318Y0129176D01*
X0179552Y0128457D01*
X0179895Y0127784D01*
X0180339Y0127173D01*
X0180873Y0126639D01*
X0181484Y0126195D01*
X0181729Y0126070D01*
X0180488Y0125556D01*
X0179632Y0124700D01*
X0177125Y0124700D01*
X0175508Y0124030D01*
X0174270Y0122792D01*
X0161177Y0109700D01*
X0158765Y0109700D01*
X0158800Y0109922D01*
X0158800Y0110300D01*
X0158800Y0110678D01*
X0158682Y0111424D01*
X0158448Y0112143D01*
X0158105Y0112816D01*
X0157661Y0113427D01*
X0157127Y0113961D01*
X0156516Y0114405D01*
X0156271Y0114530D01*
X0157512Y0115044D01*
X0159256Y0116788D01*
X0160200Y0119067D01*
X0160200Y0121533D01*
X0159256Y0123812D01*
X0157512Y0125556D01*
X0156271Y0126070D01*
X0156516Y0126195D01*
X0157127Y0126639D01*
X0157661Y0127173D01*
X0158105Y0127784D01*
X0158448Y0128457D01*
X0158682Y0129176D01*
X0158800Y0129922D01*
X0158800Y0130300D01*
X0158800Y0130678D01*
X0158682Y0131424D01*
X0158448Y0132143D01*
X0158105Y0132816D01*
X0157661Y0133427D01*
X0157127Y0133961D01*
X0156516Y0134405D01*
X0156271Y0134530D01*
X0157512Y0135044D01*
X0159256Y0136788D01*
X0160200Y0139067D01*
X0160200Y0141533D01*
X0159256Y0143812D01*
X0157768Y0145300D01*
X0159256Y0146788D01*
X0160200Y0149067D01*
X0160200Y0151533D01*
X0159256Y0153812D01*
X0157512Y0155556D01*
X0155233Y0156500D01*
X0147567Y0156500D01*
X0145288Y0155556D01*
X0143544Y0153812D01*
X0142600Y0151533D01*
X0142600Y0149067D01*
X0142609Y0149045D01*
X0137154Y0154500D01*
X0137233Y0154500D01*
X0139512Y0155444D01*
X0141256Y0157188D01*
X0142200Y0159467D01*
X0142200Y0167133D01*
X0141256Y0169412D01*
X0139512Y0171156D01*
X0137233Y0172100D01*
X0134767Y0172100D01*
X0132488Y0171156D01*
X0131044Y0169712D01*
X0130408Y0171246D01*
X0128946Y0172708D01*
X0126853Y0174801D01*
X0251221Y0174801D01*
X0251221Y0156776D01*
X0245598Y0162400D01*
X0236402Y0162400D01*
X0229900Y0155898D01*
X0229900Y0146702D01*
X0236402Y0140200D01*
X0245598Y0140200D01*
X0251221Y0145824D01*
X0251221Y0076776D01*
X0245598Y0082400D01*
X0236402Y0082400D01*
X0229900Y0075898D01*
X0229900Y0066702D01*
X0236402Y0060200D01*
X0245598Y0060200D01*
X0251221Y0065824D01*
X0251221Y0028980D01*
X0247052Y0033150D01*
X0240548Y0033150D01*
X0235950Y0028552D01*
X0235950Y0022048D01*
X0240548Y0017450D01*
X0247052Y0017450D01*
X0251221Y0021620D01*
X0251221Y0006500D01*
X0086898Y0006500D01*
X0092100Y0011702D01*
X0092100Y0020898D01*
X0085598Y0027400D01*
X0076402Y0027400D01*
X0069900Y0020898D01*
X0069900Y0019554D01*
X0062846Y0012500D01*
X0061599Y0012500D01*
X0061738Y0012589D01*
X0061738Y0012589D01*
X0065019Y0016375D01*
X0065019Y0016375D01*
X0067100Y0020932D01*
X0067813Y0025891D01*
X0067100Y0030849D01*
X0065019Y0035406D01*
X0061738Y0039192D01*
X0057524Y0041900D01*
X0057524Y0041900D01*
X0052717Y0043311D01*
X0047708Y0043311D01*
X0042901Y0041900D01*
X0038687Y0039192D01*
X0038687Y0039192D01*
X0038687Y0039192D01*
X0035407Y0035406D01*
X0035407Y0035406D01*
X0033326Y0030849D01*
X0032613Y0025891D01*
X0032613Y0025891D01*
X0033326Y0020932D01*
X0035407Y0016375D01*
X0038687Y0012589D01*
X0038826Y0012500D01*
X0026154Y0012500D01*
X0025327Y0013327D01*
X0025600Y0013987D01*
X0025600Y0016613D01*
X0024595Y0019039D01*
X0022739Y0020895D01*
X0020313Y0021900D01*
X0011687Y0021900D01*
X0009261Y0020895D01*
X0007405Y0019039D01*
X0006400Y0016613D01*
X0006400Y0013987D01*
X0007405Y0011561D01*
X0009261Y0009705D01*
X0011687Y0008700D01*
X0015246Y0008700D01*
X0017446Y0006500D01*
X0006200Y0006500D01*
X0006200Y0008496D02*
X0015451Y0008496D01*
X0008072Y0010894D02*
X0006200Y0010894D01*
X0006200Y0013293D02*
X0006688Y0013293D01*
X0006400Y0015691D02*
X0006200Y0015691D01*
X0006200Y0018090D02*
X0007012Y0018090D01*
X0006200Y0020488D02*
X0008854Y0020488D01*
X0006200Y0022887D02*
X0033044Y0022887D01*
X0033326Y0020932D02*
X0033326Y0020932D01*
X0033528Y0020488D02*
X0023146Y0020488D01*
X0024988Y0018090D02*
X0034624Y0018090D01*
X0035407Y0016375D02*
X0035407Y0016375D01*
X0035999Y0015691D02*
X0025600Y0015691D01*
X0025361Y0013293D02*
X0038078Y0013293D01*
X0032700Y0025285D02*
X0006200Y0025285D01*
X0006200Y0027684D02*
X0032870Y0027684D01*
X0033215Y0030082D02*
X0023116Y0030082D01*
X0024976Y0032481D02*
X0034071Y0032481D01*
X0033326Y0030849D02*
X0033326Y0030849D01*
X0035166Y0034879D02*
X0025600Y0034879D01*
X0025325Y0037278D02*
X0037029Y0037278D01*
X0039441Y0039676D02*
X0023958Y0039676D01*
X0021200Y0042075D02*
X0043496Y0042075D01*
X0042901Y0041900D02*
X0042901Y0041900D01*
X0056929Y0042075D02*
X0100031Y0042075D01*
X0097130Y0044473D02*
X0021200Y0044473D01*
X0021200Y0046872D02*
X0096419Y0046872D01*
X0096775Y0049270D02*
X0021200Y0049270D01*
X0021200Y0051669D02*
X0098476Y0051669D01*
X0103969Y0042075D02*
X0139694Y0042075D01*
X0141280Y0044473D02*
X0133396Y0044473D01*
X0135794Y0046872D02*
X0141271Y0046872D01*
X0141200Y0049270D02*
X0138193Y0049270D01*
X0140591Y0051669D02*
X0141200Y0051669D01*
X0132943Y0056466D02*
X0021520Y0056466D01*
X0023918Y0058864D02*
X0135342Y0058864D01*
X0137740Y0061263D02*
X0026317Y0061263D01*
X0028715Y0063661D02*
X0139052Y0063661D01*
X0138419Y0066060D02*
X0130982Y0066060D01*
X0133381Y0068458D02*
X0138853Y0068458D01*
X0140664Y0070857D02*
X0135165Y0070857D01*
X0135400Y0073255D02*
X0139822Y0073255D01*
X0138600Y0075654D02*
X0135400Y0075654D01*
X0135400Y0078052D02*
X0138600Y0078052D01*
X0126000Y0082297D02*
X0126000Y0088300D01*
X0126000Y0088300D01*
X0126000Y0095700D01*
X0126378Y0095700D01*
X0126600Y0095665D01*
X0126600Y0096175D01*
X0126983Y0097100D01*
X0124154Y0097100D01*
X0121318Y0094264D01*
X0121770Y0093171D01*
X0121895Y0093416D01*
X0122339Y0094027D01*
X0122873Y0094561D01*
X0123484Y0095005D01*
X0124157Y0095348D01*
X0124876Y0095582D01*
X0125622Y0095700D01*
X0126000Y0095700D01*
X0126000Y0088300D01*
X0126000Y0088300D01*
X0126000Y0082298D01*
X0126000Y0082297D01*
X0126000Y0082849D02*
X0126000Y0082849D01*
X0122500Y0082412D02*
X0122500Y0077300D01*
X0122500Y0077300D01*
X0122500Y0082412D01*
X0122500Y0082412D01*
X0122500Y0080451D02*
X0122500Y0080451D01*
X0122500Y0078052D02*
X0122500Y0078052D01*
X0126000Y0085248D02*
X0126000Y0085248D01*
X0126000Y0087646D02*
X0126000Y0087646D01*
X0126000Y0090045D02*
X0126000Y0090045D01*
X0126000Y0092443D02*
X0126000Y0092443D01*
X0126000Y0094842D02*
X0126000Y0094842D01*
X0123259Y0094842D02*
X0121896Y0094842D01*
X0102481Y0080451D02*
X0099519Y0080451D01*
X0106000Y0078052D02*
X0043106Y0078052D01*
X0045505Y0080451D02*
X0092481Y0080451D01*
X0090470Y0082849D02*
X0047903Y0082849D01*
X0050302Y0085248D02*
X0089800Y0085248D01*
X0089800Y0087646D02*
X0052700Y0087646D01*
X0055099Y0090045D02*
X0089800Y0090045D01*
X0080942Y0104436D02*
X0022100Y0104436D01*
X0022100Y0102037D02*
X0052849Y0102037D01*
X0049985Y0099639D02*
X0021037Y0099639D01*
X0018638Y0097240D02*
X0047587Y0097240D01*
X0045188Y0094842D02*
X0016240Y0094842D01*
X0015953Y0090045D02*
X0040391Y0090045D01*
X0037992Y0087646D02*
X0018351Y0087646D01*
X0020750Y0085248D02*
X0035594Y0085248D01*
X0033195Y0082849D02*
X0022100Y0082849D01*
X0022100Y0080451D02*
X0030797Y0080451D01*
X0028398Y0078052D02*
X0022100Y0078052D01*
X0022100Y0075654D02*
X0026000Y0075654D01*
X0023601Y0073255D02*
X0020653Y0073255D01*
X0021203Y0070857D02*
X0018255Y0070857D01*
X0018804Y0068458D02*
X0015856Y0068458D01*
X0016406Y0066060D02*
X0006200Y0066060D01*
X0006200Y0063661D02*
X0014007Y0063661D01*
X0011609Y0061263D02*
X0006200Y0061263D01*
X0006200Y0058864D02*
X0010800Y0058864D01*
X0010800Y0056466D02*
X0006200Y0056466D01*
X0006200Y0054067D02*
X0010800Y0054067D01*
X0010800Y0051669D02*
X0006200Y0051669D01*
X0006200Y0049270D02*
X0010800Y0049270D01*
X0010800Y0046872D02*
X0006200Y0046872D01*
X0006200Y0044473D02*
X0010800Y0044473D01*
X0010800Y0042075D02*
X0006200Y0042075D01*
X0006200Y0039676D02*
X0008042Y0039676D01*
X0006675Y0037278D02*
X0006200Y0037278D01*
X0006200Y0034879D02*
X0006400Y0034879D01*
X0006200Y0032481D02*
X0007024Y0032481D01*
X0006200Y0030082D02*
X0008884Y0030082D01*
X0021200Y0054067D02*
X0130545Y0054067D01*
X0139419Y0039676D02*
X0060984Y0039676D01*
X0061738Y0039192D02*
X0061738Y0039192D01*
X0063397Y0037278D02*
X0140211Y0037278D01*
X0143503Y0034879D02*
X0065259Y0034879D01*
X0065019Y0035406D02*
X0065019Y0035406D01*
X0066355Y0032481D02*
X0144958Y0032481D01*
X0143508Y0031030D02*
X0142270Y0029792D01*
X0141600Y0028175D01*
X0141600Y0027268D01*
X0140744Y0026412D01*
X0139800Y0024133D01*
X0139800Y0016467D01*
X0140744Y0014188D01*
X0142488Y0012444D01*
X0144767Y0011500D01*
X0147233Y0011500D01*
X0149512Y0012444D01*
X0151000Y0013932D01*
X0152488Y0012444D01*
X0154767Y0011500D01*
X0157233Y0011500D01*
X0159512Y0012444D01*
X0161000Y0013932D01*
X0162488Y0012444D01*
X0164767Y0011500D01*
X0167233Y0011500D01*
X0169512Y0012444D01*
X0171000Y0013932D01*
X0172488Y0012444D01*
X0174767Y0011500D01*
X0177233Y0011500D01*
X0179512Y0012444D01*
X0181256Y0014188D01*
X0181965Y0015900D01*
X0187066Y0015900D01*
X0188261Y0014705D01*
X0190687Y0013700D01*
X0199313Y0013700D01*
X0201739Y0014705D01*
X0203595Y0016561D01*
X0204600Y0018987D01*
X0204600Y0021613D01*
X0203595Y0024039D01*
X0202334Y0025300D01*
X0203595Y0026561D01*
X0204600Y0028987D01*
X0204600Y0031613D01*
X0203595Y0034039D01*
X0201739Y0035895D01*
X0201131Y0036147D01*
X0201388Y0036334D01*
X0201966Y0036912D01*
X0202447Y0037575D01*
X0202819Y0038304D01*
X0203072Y0039082D01*
X0203200Y0039891D01*
X0203200Y0040300D01*
X0195000Y0040300D01*
X0195000Y0040300D01*
X0195000Y0040300D01*
X0186800Y0040300D01*
X0186800Y0039891D01*
X0186928Y0039082D01*
X0187181Y0038304D01*
X0187553Y0037575D01*
X0188034Y0036912D01*
X0188612Y0036334D01*
X0188869Y0036147D01*
X0188261Y0035895D01*
X0187066Y0034700D01*
X0148125Y0034700D01*
X0146508Y0034030D01*
X0143508Y0031030D01*
X0142560Y0030082D02*
X0067210Y0030082D01*
X0067100Y0030849D02*
X0067100Y0030849D01*
X0067555Y0027684D02*
X0141600Y0027684D01*
X0140277Y0025285D02*
X0110733Y0025285D01*
X0110018Y0026000D02*
X0106175Y0026000D01*
X0106175Y0016475D01*
X0115700Y0016475D01*
X0115700Y0020318D01*
X0110018Y0026000D01*
X0106175Y0025285D02*
X0105825Y0025285D01*
X0105825Y0026000D02*
X0101982Y0026000D01*
X0096300Y0020318D01*
X0096300Y0016475D01*
X0105825Y0016475D01*
X0105825Y0026000D01*
X0105825Y0022887D02*
X0106175Y0022887D01*
X0106175Y0020488D02*
X0105825Y0020488D01*
X0105825Y0018090D02*
X0106175Y0018090D01*
X0106175Y0016475D02*
X0105825Y0016475D01*
X0105825Y0016125D01*
X0106175Y0016125D01*
X0106175Y0016475D01*
X0106175Y0016125D02*
X0115700Y0016125D01*
X0115700Y0012282D01*
X0110018Y0006600D01*
X0106175Y0006600D01*
X0106175Y0016125D01*
X0105825Y0016125D02*
X0105825Y0006600D01*
X0101982Y0006600D01*
X0096300Y0012282D01*
X0096300Y0016125D01*
X0105825Y0016125D01*
X0105825Y0015691D02*
X0106175Y0015691D01*
X0106175Y0013293D02*
X0105825Y0013293D01*
X0105825Y0010894D02*
X0106175Y0010894D01*
X0106175Y0008496D02*
X0105825Y0008496D01*
X0111913Y0008496D02*
X0251221Y0008496D01*
X0251221Y0010894D02*
X0114312Y0010894D01*
X0115700Y0013293D02*
X0141639Y0013293D01*
X0140121Y0015691D02*
X0115700Y0015691D01*
X0115700Y0018090D02*
X0139800Y0018090D01*
X0139800Y0020488D02*
X0115530Y0020488D01*
X0113131Y0022887D02*
X0139800Y0022887D01*
X0150361Y0013293D02*
X0151639Y0013293D01*
X0160361Y0013293D02*
X0161639Y0013293D01*
X0170361Y0013293D02*
X0171639Y0013293D01*
X0180361Y0013293D02*
X0251221Y0013293D01*
X0251221Y0015691D02*
X0202725Y0015691D01*
X0204228Y0018090D02*
X0214309Y0018090D01*
X0214948Y0017450D02*
X0221452Y0017450D01*
X0226050Y0022048D01*
X0226050Y0028552D01*
X0221452Y0033150D01*
X0214948Y0033150D01*
X0210350Y0028552D01*
X0210350Y0022048D01*
X0214948Y0017450D01*
X0211910Y0020488D02*
X0204600Y0020488D01*
X0204072Y0022887D02*
X0210350Y0022887D01*
X0210350Y0025285D02*
X0202349Y0025285D01*
X0204060Y0027684D02*
X0210350Y0027684D01*
X0211881Y0030082D02*
X0204600Y0030082D01*
X0204241Y0032481D02*
X0214279Y0032481D01*
X0222121Y0032481D02*
X0239879Y0032481D01*
X0237481Y0030082D02*
X0224519Y0030082D01*
X0226050Y0027684D02*
X0235950Y0027684D01*
X0235950Y0025285D02*
X0226050Y0025285D01*
X0226050Y0022887D02*
X0235950Y0022887D01*
X0237510Y0020488D02*
X0224490Y0020488D01*
X0222091Y0018090D02*
X0239909Y0018090D01*
X0247691Y0018090D02*
X0251221Y0018090D01*
X0251221Y0020488D02*
X0250090Y0020488D01*
X0250119Y0030082D02*
X0251221Y0030082D01*
X0251221Y0032481D02*
X0247721Y0032481D01*
X0251221Y0034879D02*
X0202755Y0034879D01*
X0202232Y0037278D02*
X0251221Y0037278D01*
X0251221Y0039676D02*
X0203166Y0039676D01*
X0202891Y0042075D02*
X0251221Y0042075D01*
X0251221Y0044473D02*
X0201179Y0044473D01*
X0203724Y0046872D02*
X0251221Y0046872D01*
X0251221Y0049270D02*
X0205193Y0049270D01*
X0207591Y0051669D02*
X0251221Y0051669D01*
X0251221Y0054067D02*
X0209252Y0054067D01*
X0209400Y0056466D02*
X0251221Y0056466D01*
X0251221Y0058864D02*
X0209400Y0058864D01*
X0209400Y0061263D02*
X0235339Y0061263D01*
X0232941Y0063661D02*
X0209400Y0063661D01*
X0209034Y0066060D02*
X0230542Y0066060D01*
X0229900Y0068458D02*
X0207064Y0068458D01*
X0204666Y0070857D02*
X0229900Y0070857D01*
X0229900Y0073255D02*
X0152267Y0073255D01*
X0154118Y0070857D02*
X0164334Y0070857D01*
X0161936Y0068458D02*
X0154400Y0068458D01*
X0154400Y0066060D02*
X0159537Y0066060D01*
X0157139Y0063661D02*
X0154400Y0063661D01*
X0158122Y0075654D02*
X0179878Y0075654D01*
X0180488Y0075044D02*
X0178744Y0076788D01*
X0177800Y0079067D01*
X0177800Y0081533D01*
X0178744Y0083812D01*
X0180488Y0085556D01*
X0181729Y0086070D01*
X0181484Y0086195D01*
X0180873Y0086639D01*
X0180339Y0087173D01*
X0179895Y0087784D01*
X0179552Y0088457D01*
X0179318Y0089176D01*
X0179200Y0089922D01*
X0179200Y0090300D01*
X0184000Y0090300D01*
X0194000Y0090300D01*
X0194000Y0090678D01*
X0193882Y0091424D01*
X0193648Y0092143D01*
X0193305Y0092816D01*
X0192861Y0093427D01*
X0192327Y0093961D01*
X0191716Y0094405D01*
X0191471Y0094530D01*
X0192712Y0095044D01*
X0194456Y0096788D01*
X0195400Y0099067D01*
X0195400Y0101533D01*
X0194456Y0103812D01*
X0192712Y0105556D01*
X0191471Y0106070D01*
X0191716Y0106195D01*
X0192327Y0106639D01*
X0192861Y0107173D01*
X0193305Y0107784D01*
X0193648Y0108457D01*
X0193882Y0109176D01*
X0194000Y0109922D01*
X0194000Y0110300D01*
X0184000Y0110300D01*
X0184000Y0110300D01*
X0184000Y0110300D01*
X0179200Y0110300D01*
X0179200Y0109922D01*
X0179318Y0109176D01*
X0179552Y0108457D01*
X0179895Y0107784D01*
X0180339Y0107173D01*
X0180873Y0106639D01*
X0181484Y0106195D01*
X0181729Y0106070D01*
X0180488Y0105556D01*
X0178744Y0103812D01*
X0177800Y0101533D01*
X0177800Y0099067D01*
X0178744Y0096788D01*
X0180488Y0095044D01*
X0181729Y0094530D01*
X0181484Y0094405D01*
X0180873Y0093961D01*
X0180339Y0093427D01*
X0179895Y0092816D01*
X0179552Y0092143D01*
X0179318Y0091424D01*
X0179200Y0090678D01*
X0179200Y0090300D01*
X0184000Y0090300D01*
X0184000Y0090300D01*
X0184000Y0090300D01*
X0194000Y0090300D01*
X0194000Y0089922D01*
X0193882Y0089176D01*
X0193648Y0088457D01*
X0193305Y0087784D01*
X0192861Y0087173D01*
X0192327Y0086639D01*
X0191716Y0086195D01*
X0191471Y0086070D01*
X0192712Y0085556D01*
X0194456Y0083812D01*
X0195400Y0081533D01*
X0195400Y0079067D01*
X0194456Y0076788D01*
X0192712Y0075044D01*
X0190433Y0074100D01*
X0182767Y0074100D01*
X0180488Y0075044D01*
X0178220Y0078052D02*
X0159780Y0078052D01*
X0160200Y0080451D02*
X0177800Y0080451D01*
X0178345Y0082849D02*
X0159655Y0082849D01*
X0157820Y0085248D02*
X0180180Y0085248D01*
X0179995Y0087646D02*
X0158005Y0087646D01*
X0158800Y0090045D02*
X0179200Y0090045D01*
X0179705Y0092443D02*
X0158295Y0092443D01*
X0157024Y0094842D02*
X0180976Y0094842D01*
X0178556Y0097240D02*
X0159444Y0097240D01*
X0160200Y0099639D02*
X0177800Y0099639D01*
X0178009Y0102037D02*
X0165960Y0102037D01*
X0168359Y0104436D02*
X0179368Y0104436D01*
X0180677Y0106834D02*
X0170757Y0106834D01*
X0173156Y0109233D02*
X0179309Y0109233D01*
X0179386Y0111632D02*
X0175554Y0111632D01*
X0177953Y0114030D02*
X0180968Y0114030D01*
X0172703Y0121226D02*
X0160200Y0121226D01*
X0160101Y0118827D02*
X0170305Y0118827D01*
X0167906Y0116429D02*
X0158897Y0116429D01*
X0157032Y0114030D02*
X0165507Y0114030D01*
X0163109Y0111632D02*
X0158614Y0111632D01*
X0158800Y0110300D02*
X0154000Y0110300D01*
X0154000Y0110300D01*
X0158800Y0110300D01*
X0159334Y0123624D02*
X0175102Y0123624D01*
X0179570Y0128421D02*
X0158430Y0128421D01*
X0158800Y0130300D02*
X0154000Y0130300D01*
X0158800Y0130300D01*
X0158778Y0130820D02*
X0179222Y0130820D01*
X0180187Y0133218D02*
X0157813Y0133218D01*
X0158085Y0135617D02*
X0179915Y0135617D01*
X0178236Y0138015D02*
X0159764Y0138015D01*
X0160200Y0140414D02*
X0177800Y0140414D01*
X0178330Y0142812D02*
X0159670Y0142812D01*
X0157857Y0145211D02*
X0180143Y0145211D01*
X0178404Y0147609D02*
X0159596Y0147609D01*
X0160200Y0150008D02*
X0177800Y0150008D01*
X0178162Y0152406D02*
X0159838Y0152406D01*
X0158263Y0154805D02*
X0179737Y0154805D01*
X0190806Y0156833D02*
X0190806Y0156833D01*
X0190975Y0157203D02*
X0141262Y0157203D01*
X0144537Y0154805D02*
X0137969Y0154805D01*
X0139248Y0152406D02*
X0142962Y0152406D01*
X0142600Y0150008D02*
X0141646Y0150008D01*
X0142200Y0159602D02*
X0192070Y0159602D01*
X0192887Y0161390D02*
X0192887Y0161390D01*
X0193416Y0162000D02*
X0142200Y0162000D01*
X0142200Y0164399D02*
X0195494Y0164399D01*
X0196167Y0165176D02*
X0196167Y0165176D01*
X0196167Y0165176D01*
X0198690Y0166797D02*
X0142200Y0166797D01*
X0141346Y0169196D02*
X0204848Y0169196D01*
X0210538Y0169196D02*
X0251221Y0169196D01*
X0251221Y0171594D02*
X0138454Y0171594D01*
X0133546Y0171594D02*
X0130060Y0171594D01*
X0127661Y0173993D02*
X0251221Y0173993D01*
X0251221Y0166797D02*
X0216696Y0166797D01*
X0215004Y0167884D02*
X0215004Y0167884D01*
X0219218Y0165176D02*
X0219218Y0165176D01*
X0219892Y0164399D02*
X0251221Y0164399D01*
X0251221Y0162000D02*
X0245997Y0162000D01*
X0248396Y0159602D02*
X0251221Y0159602D01*
X0251221Y0157203D02*
X0250795Y0157203D01*
X0250608Y0145211D02*
X0251221Y0145211D01*
X0251221Y0142812D02*
X0248210Y0142812D01*
X0245811Y0140414D02*
X0251221Y0140414D01*
X0251221Y0138015D02*
X0218349Y0138015D01*
X0219218Y0138574D02*
X0219218Y0138574D01*
X0219218Y0138574D01*
X0220813Y0140414D02*
X0236189Y0140414D01*
X0233790Y0142812D02*
X0222706Y0142812D01*
X0222499Y0142360D02*
X0222499Y0142360D01*
X0223801Y0145211D02*
X0231392Y0145211D01*
X0229900Y0147609D02*
X0224680Y0147609D01*
X0225024Y0150008D02*
X0229900Y0150008D01*
X0229900Y0152406D02*
X0225216Y0152406D01*
X0224872Y0154805D02*
X0229900Y0154805D01*
X0231205Y0157203D02*
X0224411Y0157203D01*
X0223316Y0159602D02*
X0233604Y0159602D01*
X0236002Y0162000D02*
X0221970Y0162000D01*
X0197036Y0138015D02*
X0194964Y0138015D01*
X0196167Y0138574D02*
X0196167Y0138574D01*
X0200382Y0135865D02*
X0200382Y0135865D01*
X0201228Y0135617D02*
X0193285Y0135617D01*
X0193013Y0133218D02*
X0251221Y0133218D01*
X0251221Y0130820D02*
X0193978Y0130820D01*
X0193630Y0128421D02*
X0251221Y0128421D01*
X0251221Y0126023D02*
X0191586Y0126023D01*
X0194534Y0123624D02*
X0251221Y0123624D01*
X0251221Y0121226D02*
X0195400Y0121226D01*
X0195301Y0118827D02*
X0251221Y0118827D01*
X0251221Y0116429D02*
X0194097Y0116429D01*
X0192232Y0114030D02*
X0251221Y0114030D01*
X0251221Y0111632D02*
X0193814Y0111632D01*
X0193891Y0109233D02*
X0251221Y0109233D01*
X0251221Y0106834D02*
X0192523Y0106834D01*
X0193832Y0104436D02*
X0251221Y0104436D01*
X0251221Y0102037D02*
X0195191Y0102037D01*
X0195400Y0099639D02*
X0251221Y0099639D01*
X0251221Y0097240D02*
X0194644Y0097240D01*
X0192224Y0094842D02*
X0251221Y0094842D01*
X0251221Y0092443D02*
X0193495Y0092443D01*
X0194000Y0090045D02*
X0251221Y0090045D01*
X0251221Y0087646D02*
X0193205Y0087646D01*
X0193020Y0085248D02*
X0251221Y0085248D01*
X0251221Y0082849D02*
X0194855Y0082849D01*
X0195400Y0080451D02*
X0234453Y0080451D01*
X0232055Y0078052D02*
X0194980Y0078052D01*
X0193322Y0075654D02*
X0229900Y0075654D01*
X0247547Y0080451D02*
X0251221Y0080451D01*
X0251221Y0078052D02*
X0249945Y0078052D01*
X0249059Y0063661D02*
X0251221Y0063661D01*
X0251221Y0061263D02*
X0246661Y0061263D01*
X0188820Y0044473D02*
X0181374Y0044473D01*
X0182200Y0046872D02*
X0186276Y0046872D01*
X0185400Y0049270D02*
X0182200Y0049270D01*
X0182200Y0051669D02*
X0185423Y0051669D01*
X0186433Y0054067D02*
X0182200Y0054067D01*
X0178621Y0042075D02*
X0187109Y0042075D01*
X0186834Y0039676D02*
X0169599Y0039676D01*
X0167200Y0037278D02*
X0187768Y0037278D01*
X0187245Y0034879D02*
X0146497Y0034879D01*
X0170400Y0042075D02*
X0173379Y0042075D01*
X0181879Y0015691D02*
X0187275Y0015691D01*
X0108347Y0066060D02*
X0031114Y0066060D01*
X0033512Y0068458D02*
X0107419Y0068458D01*
X0107604Y0070857D02*
X0035911Y0070857D01*
X0038309Y0073255D02*
X0106475Y0073255D01*
X0106000Y0075654D02*
X0040708Y0075654D01*
X0042790Y0092443D02*
X0006200Y0092443D01*
X0022100Y0106834D02*
X0081465Y0106834D01*
X0089981Y0114030D02*
X0052861Y0114030D01*
X0049139Y0114030D02*
X0017968Y0114030D01*
X0020366Y0111632D02*
X0091290Y0111632D01*
X0090250Y0109233D02*
X0022100Y0109233D01*
X0006200Y0116429D02*
X0046148Y0116429D01*
X0045419Y0118827D02*
X0006200Y0118827D01*
X0006200Y0121226D02*
X0045757Y0121226D01*
X0046600Y0123624D02*
X0006200Y0123624D01*
X0016420Y0126023D02*
X0031909Y0126023D01*
X0030233Y0128421D02*
X0018819Y0128421D01*
X0021217Y0130820D02*
X0029800Y0130820D01*
X0029800Y0133218D02*
X0022100Y0133218D01*
X0022100Y0135617D02*
X0029800Y0135617D01*
X0030165Y0138015D02*
X0022100Y0138015D01*
X0040091Y0126023D02*
X0041909Y0126023D01*
X0055400Y0123624D02*
X0090418Y0123624D01*
X0091909Y0126023D02*
X0077138Y0126023D01*
X0076000Y0126023D02*
X0076000Y0126023D01*
X0076000Y0125900D02*
X0076000Y0133300D01*
X0080800Y0133300D01*
X0076000Y0133300D01*
X0076000Y0133300D01*
X0076000Y0133300D01*
X0076000Y0125900D01*
X0074862Y0126023D02*
X0070091Y0126023D01*
X0071767Y0128421D02*
X0071774Y0128421D01*
X0076000Y0128421D02*
X0076000Y0128421D01*
X0076000Y0130820D02*
X0076000Y0130820D01*
X0076000Y0133218D02*
X0076000Y0133218D01*
X0080800Y0133218D02*
X0089800Y0133218D01*
X0089800Y0130820D02*
X0080800Y0130820D01*
X0080226Y0128421D02*
X0090233Y0128421D01*
X0089800Y0121226D02*
X0056243Y0121226D01*
X0056581Y0118827D02*
X0089800Y0118827D01*
X0089800Y0116429D02*
X0055852Y0116429D01*
X0060091Y0126023D02*
X0061909Y0126023D01*
X0154000Y0130300D02*
X0154000Y0130300D01*
X0156386Y0126023D02*
X0181614Y0126023D01*
X0214157Y0135617D02*
X0251221Y0135617D01*
X0215004Y0135865D02*
X0215004Y0135865D01*
X0158800Y0090300D02*
X0154000Y0090300D01*
X0154000Y0090300D01*
X0158800Y0090300D01*
X0101267Y0025285D02*
X0087713Y0025285D01*
X0090111Y0022887D02*
X0098869Y0022887D01*
X0096470Y0020488D02*
X0092100Y0020488D01*
X0092100Y0018090D02*
X0096300Y0018090D01*
X0096300Y0015691D02*
X0092100Y0015691D01*
X0092100Y0013293D02*
X0096300Y0013293D01*
X0097688Y0010894D02*
X0091292Y0010894D01*
X0088893Y0008496D02*
X0100087Y0008496D01*
X0074287Y0025285D02*
X0067726Y0025285D01*
X0067381Y0022887D02*
X0071889Y0022887D01*
X0069900Y0020488D02*
X0066897Y0020488D01*
X0067100Y0020932D02*
X0067100Y0020932D01*
X0065802Y0018090D02*
X0068436Y0018090D01*
X0066037Y0015691D02*
X0064426Y0015691D01*
X0063639Y0013293D02*
X0062347Y0013293D01*
X0061738Y0012589D02*
X0061738Y0012589D01*
D20*
X0102000Y0047300D03*
X0113000Y0069300D03*
X0144000Y0066300D03*
X0145000Y0040300D03*
X0051000Y0119300D03*
X0086000Y0147300D03*
M02*
