G75*
%MOIN*%
%OFA0B0*%
%FSLAX25Y25*%
%IPPOS*%
%LPD*%
%AMOC8*
5,1,8,0,0,1.08239X$1,22.5*
%
%ADD10C,0.00000*%
%ADD11C,0.00400*%
%ADD12C,0.00600*%
%ADD13C,0.00500*%
%ADD14C,0.00700*%
%ADD15C,0.00800*%
%ADD16C,0.01000*%
%ADD17R,0.01181X0.08268*%
%ADD18R,0.02400X0.06200*%
D10*
X0001000Y0001300D02*
X0001000Y0180001D01*
X0256421Y0180001D01*
X0256421Y0001300D01*
X0001000Y0001300D01*
X0044701Y0025891D02*
X0044703Y0026039D01*
X0044709Y0026187D01*
X0044719Y0026335D01*
X0044733Y0026482D01*
X0044751Y0026629D01*
X0044772Y0026775D01*
X0044798Y0026921D01*
X0044828Y0027066D01*
X0044861Y0027210D01*
X0044899Y0027353D01*
X0044940Y0027495D01*
X0044985Y0027636D01*
X0045033Y0027776D01*
X0045086Y0027915D01*
X0045142Y0028052D01*
X0045202Y0028187D01*
X0045265Y0028321D01*
X0045332Y0028453D01*
X0045403Y0028583D01*
X0045477Y0028711D01*
X0045554Y0028837D01*
X0045635Y0028961D01*
X0045719Y0029083D01*
X0045806Y0029202D01*
X0045897Y0029319D01*
X0045991Y0029434D01*
X0046087Y0029546D01*
X0046187Y0029656D01*
X0046289Y0029762D01*
X0046395Y0029866D01*
X0046503Y0029967D01*
X0046614Y0030065D01*
X0046727Y0030161D01*
X0046843Y0030253D01*
X0046961Y0030342D01*
X0047082Y0030427D01*
X0047205Y0030510D01*
X0047330Y0030589D01*
X0047457Y0030665D01*
X0047586Y0030737D01*
X0047717Y0030806D01*
X0047850Y0030871D01*
X0047985Y0030932D01*
X0048121Y0030990D01*
X0048258Y0031045D01*
X0048397Y0031095D01*
X0048538Y0031142D01*
X0048679Y0031185D01*
X0048822Y0031225D01*
X0048966Y0031260D01*
X0049110Y0031292D01*
X0049256Y0031319D01*
X0049402Y0031343D01*
X0049549Y0031363D01*
X0049696Y0031379D01*
X0049843Y0031391D01*
X0049991Y0031399D01*
X0050139Y0031403D01*
X0050287Y0031403D01*
X0050435Y0031399D01*
X0050583Y0031391D01*
X0050730Y0031379D01*
X0050877Y0031363D01*
X0051024Y0031343D01*
X0051170Y0031319D01*
X0051316Y0031292D01*
X0051460Y0031260D01*
X0051604Y0031225D01*
X0051747Y0031185D01*
X0051888Y0031142D01*
X0052029Y0031095D01*
X0052168Y0031045D01*
X0052305Y0030990D01*
X0052441Y0030932D01*
X0052576Y0030871D01*
X0052709Y0030806D01*
X0052840Y0030737D01*
X0052969Y0030665D01*
X0053096Y0030589D01*
X0053221Y0030510D01*
X0053344Y0030427D01*
X0053465Y0030342D01*
X0053583Y0030253D01*
X0053699Y0030161D01*
X0053812Y0030065D01*
X0053923Y0029967D01*
X0054031Y0029866D01*
X0054137Y0029762D01*
X0054239Y0029656D01*
X0054339Y0029546D01*
X0054435Y0029434D01*
X0054529Y0029319D01*
X0054620Y0029202D01*
X0054707Y0029083D01*
X0054791Y0028961D01*
X0054872Y0028837D01*
X0054949Y0028711D01*
X0055023Y0028583D01*
X0055094Y0028453D01*
X0055161Y0028321D01*
X0055224Y0028187D01*
X0055284Y0028052D01*
X0055340Y0027915D01*
X0055393Y0027776D01*
X0055441Y0027636D01*
X0055486Y0027495D01*
X0055527Y0027353D01*
X0055565Y0027210D01*
X0055598Y0027066D01*
X0055628Y0026921D01*
X0055654Y0026775D01*
X0055675Y0026629D01*
X0055693Y0026482D01*
X0055707Y0026335D01*
X0055717Y0026187D01*
X0055723Y0026039D01*
X0055725Y0025891D01*
X0055723Y0025743D01*
X0055717Y0025595D01*
X0055707Y0025447D01*
X0055693Y0025300D01*
X0055675Y0025153D01*
X0055654Y0025007D01*
X0055628Y0024861D01*
X0055598Y0024716D01*
X0055565Y0024572D01*
X0055527Y0024429D01*
X0055486Y0024287D01*
X0055441Y0024146D01*
X0055393Y0024006D01*
X0055340Y0023867D01*
X0055284Y0023730D01*
X0055224Y0023595D01*
X0055161Y0023461D01*
X0055094Y0023329D01*
X0055023Y0023199D01*
X0054949Y0023071D01*
X0054872Y0022945D01*
X0054791Y0022821D01*
X0054707Y0022699D01*
X0054620Y0022580D01*
X0054529Y0022463D01*
X0054435Y0022348D01*
X0054339Y0022236D01*
X0054239Y0022126D01*
X0054137Y0022020D01*
X0054031Y0021916D01*
X0053923Y0021815D01*
X0053812Y0021717D01*
X0053699Y0021621D01*
X0053583Y0021529D01*
X0053465Y0021440D01*
X0053344Y0021355D01*
X0053221Y0021272D01*
X0053096Y0021193D01*
X0052969Y0021117D01*
X0052840Y0021045D01*
X0052709Y0020976D01*
X0052576Y0020911D01*
X0052441Y0020850D01*
X0052305Y0020792D01*
X0052168Y0020737D01*
X0052029Y0020687D01*
X0051888Y0020640D01*
X0051747Y0020597D01*
X0051604Y0020557D01*
X0051460Y0020522D01*
X0051316Y0020490D01*
X0051170Y0020463D01*
X0051024Y0020439D01*
X0050877Y0020419D01*
X0050730Y0020403D01*
X0050583Y0020391D01*
X0050435Y0020383D01*
X0050287Y0020379D01*
X0050139Y0020379D01*
X0049991Y0020383D01*
X0049843Y0020391D01*
X0049696Y0020403D01*
X0049549Y0020419D01*
X0049402Y0020439D01*
X0049256Y0020463D01*
X0049110Y0020490D01*
X0048966Y0020522D01*
X0048822Y0020557D01*
X0048679Y0020597D01*
X0048538Y0020640D01*
X0048397Y0020687D01*
X0048258Y0020737D01*
X0048121Y0020792D01*
X0047985Y0020850D01*
X0047850Y0020911D01*
X0047717Y0020976D01*
X0047586Y0021045D01*
X0047457Y0021117D01*
X0047330Y0021193D01*
X0047205Y0021272D01*
X0047082Y0021355D01*
X0046961Y0021440D01*
X0046843Y0021529D01*
X0046727Y0021621D01*
X0046614Y0021717D01*
X0046503Y0021815D01*
X0046395Y0021916D01*
X0046289Y0022020D01*
X0046187Y0022126D01*
X0046087Y0022236D01*
X0045991Y0022348D01*
X0045897Y0022463D01*
X0045806Y0022580D01*
X0045719Y0022699D01*
X0045635Y0022821D01*
X0045554Y0022945D01*
X0045477Y0023071D01*
X0045403Y0023199D01*
X0045332Y0023329D01*
X0045265Y0023461D01*
X0045202Y0023595D01*
X0045142Y0023730D01*
X0045086Y0023867D01*
X0045033Y0024006D01*
X0044985Y0024146D01*
X0044940Y0024287D01*
X0044899Y0024429D01*
X0044861Y0024572D01*
X0044828Y0024716D01*
X0044798Y0024861D01*
X0044772Y0025007D01*
X0044751Y0025153D01*
X0044733Y0025300D01*
X0044719Y0025447D01*
X0044709Y0025595D01*
X0044703Y0025743D01*
X0044701Y0025891D01*
X0202181Y0151875D02*
X0202183Y0152023D01*
X0202189Y0152171D01*
X0202199Y0152319D01*
X0202213Y0152466D01*
X0202231Y0152613D01*
X0202252Y0152759D01*
X0202278Y0152905D01*
X0202308Y0153050D01*
X0202341Y0153194D01*
X0202379Y0153337D01*
X0202420Y0153479D01*
X0202465Y0153620D01*
X0202513Y0153760D01*
X0202566Y0153899D01*
X0202622Y0154036D01*
X0202682Y0154171D01*
X0202745Y0154305D01*
X0202812Y0154437D01*
X0202883Y0154567D01*
X0202957Y0154695D01*
X0203034Y0154821D01*
X0203115Y0154945D01*
X0203199Y0155067D01*
X0203286Y0155186D01*
X0203377Y0155303D01*
X0203471Y0155418D01*
X0203567Y0155530D01*
X0203667Y0155640D01*
X0203769Y0155746D01*
X0203875Y0155850D01*
X0203983Y0155951D01*
X0204094Y0156049D01*
X0204207Y0156145D01*
X0204323Y0156237D01*
X0204441Y0156326D01*
X0204562Y0156411D01*
X0204685Y0156494D01*
X0204810Y0156573D01*
X0204937Y0156649D01*
X0205066Y0156721D01*
X0205197Y0156790D01*
X0205330Y0156855D01*
X0205465Y0156916D01*
X0205601Y0156974D01*
X0205738Y0157029D01*
X0205877Y0157079D01*
X0206018Y0157126D01*
X0206159Y0157169D01*
X0206302Y0157209D01*
X0206446Y0157244D01*
X0206590Y0157276D01*
X0206736Y0157303D01*
X0206882Y0157327D01*
X0207029Y0157347D01*
X0207176Y0157363D01*
X0207323Y0157375D01*
X0207471Y0157383D01*
X0207619Y0157387D01*
X0207767Y0157387D01*
X0207915Y0157383D01*
X0208063Y0157375D01*
X0208210Y0157363D01*
X0208357Y0157347D01*
X0208504Y0157327D01*
X0208650Y0157303D01*
X0208796Y0157276D01*
X0208940Y0157244D01*
X0209084Y0157209D01*
X0209227Y0157169D01*
X0209368Y0157126D01*
X0209509Y0157079D01*
X0209648Y0157029D01*
X0209785Y0156974D01*
X0209921Y0156916D01*
X0210056Y0156855D01*
X0210189Y0156790D01*
X0210320Y0156721D01*
X0210449Y0156649D01*
X0210576Y0156573D01*
X0210701Y0156494D01*
X0210824Y0156411D01*
X0210945Y0156326D01*
X0211063Y0156237D01*
X0211179Y0156145D01*
X0211292Y0156049D01*
X0211403Y0155951D01*
X0211511Y0155850D01*
X0211617Y0155746D01*
X0211719Y0155640D01*
X0211819Y0155530D01*
X0211915Y0155418D01*
X0212009Y0155303D01*
X0212100Y0155186D01*
X0212187Y0155067D01*
X0212271Y0154945D01*
X0212352Y0154821D01*
X0212429Y0154695D01*
X0212503Y0154567D01*
X0212574Y0154437D01*
X0212641Y0154305D01*
X0212704Y0154171D01*
X0212764Y0154036D01*
X0212820Y0153899D01*
X0212873Y0153760D01*
X0212921Y0153620D01*
X0212966Y0153479D01*
X0213007Y0153337D01*
X0213045Y0153194D01*
X0213078Y0153050D01*
X0213108Y0152905D01*
X0213134Y0152759D01*
X0213155Y0152613D01*
X0213173Y0152466D01*
X0213187Y0152319D01*
X0213197Y0152171D01*
X0213203Y0152023D01*
X0213205Y0151875D01*
X0213203Y0151727D01*
X0213197Y0151579D01*
X0213187Y0151431D01*
X0213173Y0151284D01*
X0213155Y0151137D01*
X0213134Y0150991D01*
X0213108Y0150845D01*
X0213078Y0150700D01*
X0213045Y0150556D01*
X0213007Y0150413D01*
X0212966Y0150271D01*
X0212921Y0150130D01*
X0212873Y0149990D01*
X0212820Y0149851D01*
X0212764Y0149714D01*
X0212704Y0149579D01*
X0212641Y0149445D01*
X0212574Y0149313D01*
X0212503Y0149183D01*
X0212429Y0149055D01*
X0212352Y0148929D01*
X0212271Y0148805D01*
X0212187Y0148683D01*
X0212100Y0148564D01*
X0212009Y0148447D01*
X0211915Y0148332D01*
X0211819Y0148220D01*
X0211719Y0148110D01*
X0211617Y0148004D01*
X0211511Y0147900D01*
X0211403Y0147799D01*
X0211292Y0147701D01*
X0211179Y0147605D01*
X0211063Y0147513D01*
X0210945Y0147424D01*
X0210824Y0147339D01*
X0210701Y0147256D01*
X0210576Y0147177D01*
X0210449Y0147101D01*
X0210320Y0147029D01*
X0210189Y0146960D01*
X0210056Y0146895D01*
X0209921Y0146834D01*
X0209785Y0146776D01*
X0209648Y0146721D01*
X0209509Y0146671D01*
X0209368Y0146624D01*
X0209227Y0146581D01*
X0209084Y0146541D01*
X0208940Y0146506D01*
X0208796Y0146474D01*
X0208650Y0146447D01*
X0208504Y0146423D01*
X0208357Y0146403D01*
X0208210Y0146387D01*
X0208063Y0146375D01*
X0207915Y0146367D01*
X0207767Y0146363D01*
X0207619Y0146363D01*
X0207471Y0146367D01*
X0207323Y0146375D01*
X0207176Y0146387D01*
X0207029Y0146403D01*
X0206882Y0146423D01*
X0206736Y0146447D01*
X0206590Y0146474D01*
X0206446Y0146506D01*
X0206302Y0146541D01*
X0206159Y0146581D01*
X0206018Y0146624D01*
X0205877Y0146671D01*
X0205738Y0146721D01*
X0205601Y0146776D01*
X0205465Y0146834D01*
X0205330Y0146895D01*
X0205197Y0146960D01*
X0205066Y0147029D01*
X0204937Y0147101D01*
X0204810Y0147177D01*
X0204685Y0147256D01*
X0204562Y0147339D01*
X0204441Y0147424D01*
X0204323Y0147513D01*
X0204207Y0147605D01*
X0204094Y0147701D01*
X0203983Y0147799D01*
X0203875Y0147900D01*
X0203769Y0148004D01*
X0203667Y0148110D01*
X0203567Y0148220D01*
X0203471Y0148332D01*
X0203377Y0148447D01*
X0203286Y0148564D01*
X0203199Y0148683D01*
X0203115Y0148805D01*
X0203034Y0148929D01*
X0202957Y0149055D01*
X0202883Y0149183D01*
X0202812Y0149313D01*
X0202745Y0149445D01*
X0202682Y0149579D01*
X0202622Y0149714D01*
X0202566Y0149851D01*
X0202513Y0149990D01*
X0202465Y0150130D01*
X0202420Y0150271D01*
X0202379Y0150413D01*
X0202341Y0150556D01*
X0202308Y0150700D01*
X0202278Y0150845D01*
X0202252Y0150991D01*
X0202231Y0151137D01*
X0202213Y0151284D01*
X0202199Y0151431D01*
X0202189Y0151579D01*
X0202183Y0151727D01*
X0202181Y0151875D01*
D11*
X0228378Y0161767D02*
X0229146Y0161000D01*
X0230680Y0161000D01*
X0231448Y0161767D01*
X0231448Y0165604D01*
X0232982Y0164069D02*
X0235284Y0164069D01*
X0236052Y0163302D01*
X0236052Y0161000D01*
X0237586Y0161000D02*
X0239121Y0161000D01*
X0238354Y0161000D02*
X0238354Y0165604D01*
X0237586Y0165604D01*
X0240655Y0163302D02*
X0240655Y0161767D01*
X0241423Y0161000D01*
X0242957Y0161000D01*
X0243725Y0161767D01*
X0243725Y0163302D01*
X0242957Y0164069D01*
X0241423Y0164069D01*
X0240655Y0163302D01*
X0245259Y0163302D02*
X0245259Y0161767D01*
X0246027Y0161000D01*
X0248329Y0161000D01*
X0249863Y0161000D02*
X0249863Y0165604D01*
X0248329Y0164069D02*
X0246027Y0164069D01*
X0245259Y0163302D01*
X0249863Y0162535D02*
X0252165Y0161000D01*
X0249863Y0162535D02*
X0252165Y0164069D01*
X0250888Y0172500D02*
X0248586Y0172500D01*
X0247818Y0173267D01*
X0247818Y0174802D01*
X0248586Y0175569D01*
X0250888Y0175569D01*
X0250888Y0177104D02*
X0250888Y0172500D01*
X0246284Y0172500D02*
X0244749Y0172500D01*
X0245516Y0172500D02*
X0245516Y0177104D01*
X0244749Y0177104D01*
X0242447Y0175569D02*
X0240912Y0175569D01*
X0240145Y0174802D01*
X0240145Y0173267D01*
X0240912Y0172500D01*
X0242447Y0172500D01*
X0243214Y0173267D01*
X0243214Y0174802D01*
X0242447Y0175569D01*
X0238610Y0174802D02*
X0237076Y0174802D01*
X0237843Y0176337D02*
X0237843Y0172500D01*
X0237843Y0176337D02*
X0238610Y0177104D01*
X0230937Y0174802D02*
X0230937Y0173267D01*
X0230170Y0172500D01*
X0228635Y0172500D01*
X0227868Y0173267D01*
X0227868Y0174802D01*
X0228635Y0175569D01*
X0230170Y0175569D01*
X0230937Y0174802D01*
X0226333Y0175569D02*
X0224799Y0175569D01*
X0225566Y0176337D02*
X0225566Y0173267D01*
X0226333Y0172500D01*
X0223264Y0172500D02*
X0223264Y0175569D01*
X0223264Y0172500D02*
X0220962Y0172500D01*
X0220195Y0173267D01*
X0220195Y0175569D01*
X0218660Y0174802D02*
X0218660Y0172500D01*
X0216358Y0172500D01*
X0215591Y0173267D01*
X0216358Y0174035D01*
X0218660Y0174035D01*
X0218660Y0174802D02*
X0217893Y0175569D01*
X0216358Y0175569D01*
X0209452Y0175569D02*
X0208685Y0175569D01*
X0207150Y0174035D01*
X0207150Y0175569D02*
X0207150Y0172500D01*
X0205616Y0173267D02*
X0205616Y0174802D01*
X0204848Y0175569D01*
X0203314Y0175569D01*
X0202546Y0174802D01*
X0202546Y0173267D01*
X0203314Y0172500D01*
X0204848Y0172500D01*
X0205616Y0173267D01*
X0201012Y0175569D02*
X0200244Y0175569D01*
X0198710Y0174035D01*
X0198710Y0175569D02*
X0198710Y0172500D01*
X0197175Y0175569D02*
X0196408Y0175569D01*
X0194873Y0174035D01*
X0194873Y0175569D02*
X0194873Y0172500D01*
X0193339Y0172500D02*
X0191804Y0172500D01*
X0192571Y0172500D02*
X0192571Y0175569D01*
X0191804Y0175569D01*
X0192571Y0177104D02*
X0192571Y0177871D01*
X0190269Y0177104D02*
X0190269Y0172500D01*
X0187200Y0172500D02*
X0187200Y0177104D01*
X0188735Y0175569D01*
X0190269Y0177104D01*
X0181873Y0174837D02*
X0181106Y0175604D01*
X0179571Y0175604D01*
X0178804Y0174837D01*
X0177269Y0174837D02*
X0176502Y0175604D01*
X0174200Y0175604D01*
X0174200Y0171000D01*
X0176502Y0171000D01*
X0177269Y0171767D01*
X0177269Y0174837D01*
X0178804Y0171000D02*
X0181873Y0174069D01*
X0181873Y0174837D01*
X0181873Y0171000D02*
X0178804Y0171000D01*
X0155665Y0170767D02*
X0154898Y0170000D01*
X0153363Y0170000D01*
X0152596Y0170767D01*
X0151061Y0170767D02*
X0150294Y0170000D01*
X0147992Y0170000D01*
X0147992Y0174604D01*
X0150294Y0174604D01*
X0151061Y0173837D01*
X0151061Y0170767D01*
X0154131Y0172302D02*
X0154898Y0172302D01*
X0155665Y0171535D01*
X0155665Y0170767D01*
X0154898Y0172302D02*
X0155665Y0173069D01*
X0155665Y0173837D01*
X0154898Y0174604D01*
X0153363Y0174604D01*
X0152596Y0173837D01*
X0206696Y0124906D02*
X0206696Y0123371D01*
X0207463Y0122604D01*
X0208231Y0122604D01*
X0208998Y0123371D01*
X0208998Y0125673D01*
X0210533Y0125673D02*
X0207463Y0125673D01*
X0206696Y0124906D01*
X0210533Y0125673D02*
X0211300Y0124906D01*
X0211300Y0123371D01*
X0210533Y0122604D01*
X0210533Y0121069D02*
X0207463Y0121069D01*
X0206696Y0120302D01*
X0206696Y0118000D01*
X0211300Y0118000D01*
X0211300Y0120302D01*
X0210533Y0121069D01*
X0221196Y0120802D02*
X0221196Y0119267D01*
X0221963Y0118500D01*
X0225033Y0118500D01*
X0225800Y0119267D01*
X0225800Y0120802D01*
X0225033Y0121569D01*
X0223498Y0123104D02*
X0223498Y0126173D01*
X0221196Y0125406D02*
X0223498Y0123104D01*
X0221963Y0121569D02*
X0221196Y0120802D01*
X0221196Y0125406D02*
X0225800Y0125406D01*
X0236196Y0126173D02*
X0236963Y0124639D01*
X0238498Y0123104D01*
X0238498Y0125406D01*
X0239265Y0126173D01*
X0240033Y0126173D01*
X0240800Y0125406D01*
X0240800Y0123871D01*
X0240033Y0123104D01*
X0238498Y0123104D01*
X0238498Y0121569D02*
X0239265Y0120802D01*
X0239265Y0118500D01*
X0239265Y0120035D02*
X0240800Y0121569D01*
X0238498Y0121569D02*
X0236963Y0121569D01*
X0236196Y0120802D01*
X0236196Y0118500D01*
X0240800Y0118500D01*
X0240785Y0137500D02*
X0240785Y0139902D01*
X0239584Y0141103D01*
X0238383Y0139902D01*
X0238383Y0137500D01*
X0238383Y0139302D02*
X0240785Y0139302D01*
X0242066Y0141103D02*
X0242066Y0137500D01*
X0243868Y0137500D01*
X0244468Y0138101D01*
X0244468Y0140503D01*
X0243868Y0141103D01*
X0242066Y0141103D01*
X0245749Y0140503D02*
X0245749Y0139902D01*
X0246350Y0139302D01*
X0247551Y0139302D01*
X0248151Y0138701D01*
X0248151Y0138101D01*
X0247551Y0137500D01*
X0246350Y0137500D01*
X0245749Y0138101D01*
X0245749Y0138701D01*
X0246350Y0139302D01*
X0247551Y0139302D02*
X0248151Y0139902D01*
X0248151Y0140503D01*
X0247551Y0141103D01*
X0246350Y0141103D01*
X0245749Y0140503D01*
X0237102Y0140503D02*
X0237102Y0139302D01*
X0236502Y0138701D01*
X0234700Y0138701D01*
X0234700Y0137500D02*
X0234700Y0141103D01*
X0236502Y0141103D01*
X0237102Y0140503D01*
X0232982Y0161000D02*
X0232982Y0164069D01*
X0228378Y0165604D02*
X0228378Y0161767D01*
X0225033Y0097173D02*
X0225800Y0096406D01*
X0225800Y0094871D01*
X0225033Y0094104D01*
X0225033Y0092569D02*
X0225800Y0091802D01*
X0225800Y0090267D01*
X0225033Y0089500D01*
X0221963Y0089500D01*
X0221196Y0090267D01*
X0221196Y0091802D01*
X0221963Y0092569D01*
X0221963Y0094104D02*
X0221196Y0094871D01*
X0221196Y0096406D01*
X0221963Y0097173D01*
X0222731Y0097173D01*
X0223498Y0096406D01*
X0224265Y0097173D01*
X0225033Y0097173D01*
X0223498Y0096406D02*
X0223498Y0095639D01*
X0211300Y0095906D02*
X0211300Y0094371D01*
X0210533Y0093604D01*
X0209765Y0093604D01*
X0208998Y0094371D01*
X0208998Y0095906D01*
X0209765Y0096673D01*
X0210533Y0096673D01*
X0211300Y0095906D01*
X0208998Y0095906D02*
X0208231Y0096673D01*
X0207463Y0096673D01*
X0206696Y0095906D01*
X0206696Y0094371D01*
X0207463Y0093604D01*
X0208231Y0093604D01*
X0208998Y0094371D01*
X0207463Y0092069D02*
X0206696Y0091302D01*
X0206696Y0089000D01*
X0211300Y0089000D01*
X0211300Y0091302D01*
X0210533Y0092069D01*
X0207463Y0092069D01*
X0233700Y0084103D02*
X0233700Y0080500D01*
X0233700Y0081701D02*
X0235502Y0081701D01*
X0236102Y0082302D01*
X0236102Y0083503D01*
X0235502Y0084103D01*
X0233700Y0084103D01*
X0237383Y0082902D02*
X0237383Y0080500D01*
X0237383Y0082302D02*
X0239785Y0082302D01*
X0239785Y0082902D02*
X0239785Y0080500D01*
X0241066Y0080500D02*
X0242868Y0080500D01*
X0243468Y0081101D01*
X0243468Y0083503D01*
X0242868Y0084103D01*
X0241066Y0084103D01*
X0241066Y0080500D01*
X0239785Y0082902D02*
X0238584Y0084103D01*
X0237383Y0082902D01*
X0236196Y0088292D02*
X0236196Y0090594D01*
X0236963Y0091361D01*
X0238498Y0091361D01*
X0239265Y0090594D01*
X0239265Y0088292D01*
X0239265Y0089827D02*
X0240800Y0091361D01*
X0240033Y0092896D02*
X0240800Y0093663D01*
X0240800Y0095198D01*
X0240033Y0095965D01*
X0238498Y0095965D01*
X0237731Y0095198D01*
X0237731Y0094431D01*
X0238498Y0092896D01*
X0236196Y0092896D01*
X0236196Y0095965D01*
X0236196Y0088292D02*
X0240800Y0088292D01*
X0244749Y0084103D02*
X0247151Y0084103D01*
X0247151Y0083503D01*
X0244749Y0081101D01*
X0244749Y0080500D01*
X0246863Y0061604D02*
X0246863Y0057000D01*
X0245329Y0057000D02*
X0243027Y0057000D01*
X0242259Y0057767D01*
X0242259Y0059302D01*
X0243027Y0060069D01*
X0245329Y0060069D01*
X0246863Y0058535D02*
X0249165Y0060069D01*
X0246863Y0058535D02*
X0249165Y0057000D01*
X0240725Y0057767D02*
X0240725Y0059302D01*
X0239957Y0060069D01*
X0238423Y0060069D01*
X0237656Y0059302D01*
X0237656Y0057767D01*
X0238423Y0057000D01*
X0239957Y0057000D01*
X0240725Y0057767D01*
X0236121Y0057000D02*
X0233052Y0057000D01*
X0233052Y0061604D01*
X0206800Y0051777D02*
X0202196Y0051777D01*
X0202196Y0054079D01*
X0202963Y0054846D01*
X0204498Y0054846D01*
X0205265Y0054079D01*
X0205265Y0051777D01*
X0205265Y0050242D02*
X0206033Y0050242D01*
X0206800Y0049475D01*
X0206800Y0047941D01*
X0206033Y0047173D01*
X0206033Y0045639D02*
X0206800Y0044871D01*
X0206800Y0043337D01*
X0206033Y0042569D01*
X0202963Y0042569D01*
X0202196Y0043337D01*
X0202196Y0044871D01*
X0202963Y0045639D01*
X0202963Y0047173D02*
X0203731Y0047173D01*
X0204498Y0047941D01*
X0204498Y0049475D01*
X0205265Y0050242D01*
X0202963Y0050242D02*
X0202196Y0049475D01*
X0202196Y0047941D01*
X0202963Y0047173D01*
X0202196Y0041035D02*
X0202196Y0039500D01*
X0202196Y0040267D02*
X0206800Y0040267D01*
X0206800Y0039500D02*
X0206800Y0041035D01*
X0164106Y0069500D02*
X0164106Y0074104D01*
X0161804Y0071802D01*
X0164873Y0071802D01*
X0160269Y0071802D02*
X0159502Y0071035D01*
X0157200Y0071035D01*
X0158735Y0071035D02*
X0160269Y0069500D01*
X0160269Y0071802D02*
X0160269Y0073337D01*
X0159502Y0074104D01*
X0157200Y0074104D01*
X0157200Y0069500D01*
X0125873Y0068104D02*
X0125873Y0067337D01*
X0122804Y0064267D01*
X0122804Y0063500D01*
X0121269Y0064267D02*
X0121269Y0067337D01*
X0120502Y0068104D01*
X0118200Y0068104D01*
X0118200Y0063500D01*
X0120502Y0063500D01*
X0121269Y0064267D01*
X0122804Y0068104D02*
X0125873Y0068104D01*
X0099665Y0067337D02*
X0099665Y0066569D01*
X0096596Y0063500D01*
X0099665Y0063500D01*
X0099665Y0067337D02*
X0098898Y0068104D01*
X0097363Y0068104D01*
X0096596Y0067337D01*
X0095061Y0067337D02*
X0095061Y0065802D01*
X0094294Y0065035D01*
X0091992Y0065035D01*
X0093527Y0065035D02*
X0095061Y0063500D01*
X0091992Y0063500D02*
X0091992Y0068104D01*
X0094294Y0068104D01*
X0095061Y0067337D01*
X0095596Y0078500D02*
X0098665Y0078500D01*
X0097131Y0078500D02*
X0097131Y0083104D01*
X0095596Y0081569D01*
X0094061Y0080802D02*
X0093294Y0080035D01*
X0090992Y0080035D01*
X0092527Y0080035D02*
X0094061Y0078500D01*
X0094061Y0080802D02*
X0094061Y0082337D01*
X0093294Y0083104D01*
X0090992Y0083104D01*
X0090992Y0078500D01*
X0071873Y0081267D02*
X0071873Y0082035D01*
X0071106Y0082802D01*
X0068804Y0082802D01*
X0068804Y0081267D01*
X0069571Y0080500D01*
X0071106Y0080500D01*
X0071873Y0081267D01*
X0070339Y0084337D02*
X0068804Y0082802D01*
X0070339Y0084337D02*
X0071873Y0085104D01*
X0067269Y0084337D02*
X0066502Y0085104D01*
X0064200Y0085104D01*
X0064200Y0080500D01*
X0066502Y0080500D01*
X0067269Y0081267D01*
X0067269Y0084337D01*
X0066502Y0097000D02*
X0064200Y0097000D01*
X0064200Y0101604D01*
X0066502Y0101604D01*
X0067269Y0100837D01*
X0067269Y0097767D01*
X0066502Y0097000D01*
X0068804Y0097000D02*
X0071873Y0097000D01*
X0070339Y0097000D02*
X0070339Y0101604D01*
X0068804Y0100069D01*
X0073408Y0100069D02*
X0074942Y0101604D01*
X0074942Y0097000D01*
X0073408Y0097000D02*
X0076477Y0097000D01*
X0081696Y0107688D02*
X0081696Y0109990D01*
X0082463Y0110757D01*
X0085533Y0110757D01*
X0086300Y0109990D01*
X0086300Y0107688D01*
X0081696Y0107688D01*
X0083231Y0112292D02*
X0081696Y0113827D01*
X0086300Y0113827D01*
X0086300Y0115361D02*
X0086300Y0112292D01*
X0085533Y0116896D02*
X0082463Y0116896D01*
X0081696Y0117663D01*
X0081696Y0119198D01*
X0082463Y0119965D01*
X0085533Y0116896D01*
X0086300Y0117663D01*
X0086300Y0119198D01*
X0085533Y0119965D01*
X0082463Y0119965D01*
X0071800Y0113896D02*
X0071033Y0113896D01*
X0067963Y0116965D01*
X0067196Y0116965D01*
X0067196Y0113896D01*
X0067963Y0112361D02*
X0069498Y0112361D01*
X0070265Y0111594D01*
X0070265Y0109292D01*
X0070265Y0110827D02*
X0071800Y0112361D01*
X0067963Y0112361D02*
X0067196Y0111594D01*
X0067196Y0109292D01*
X0071800Y0109292D01*
X0046665Y0110767D02*
X0045898Y0110000D01*
X0044363Y0110000D01*
X0043596Y0110767D01*
X0042061Y0110767D02*
X0042061Y0113837D01*
X0041294Y0114604D01*
X0038992Y0114604D01*
X0038992Y0110000D01*
X0041294Y0110000D01*
X0042061Y0110767D01*
X0043596Y0112302D02*
X0045131Y0113069D01*
X0045898Y0113069D01*
X0046665Y0112302D01*
X0046665Y0110767D01*
X0043596Y0112302D02*
X0043596Y0114604D01*
X0046665Y0114604D01*
X0045898Y0100604D02*
X0043596Y0098302D01*
X0046665Y0098302D01*
X0045898Y0096000D02*
X0045898Y0100604D01*
X0042061Y0099837D02*
X0041294Y0100604D01*
X0038992Y0100604D01*
X0038992Y0096000D01*
X0041294Y0096000D01*
X0042061Y0096767D01*
X0042061Y0099837D01*
X0026800Y0097802D02*
X0026800Y0096267D01*
X0026033Y0095500D01*
X0025265Y0095500D01*
X0024498Y0096267D01*
X0024498Y0097802D01*
X0025265Y0098569D01*
X0026033Y0098569D01*
X0026800Y0097802D01*
X0024498Y0097802D02*
X0023731Y0098569D01*
X0022963Y0098569D01*
X0022196Y0097802D01*
X0022196Y0096267D01*
X0022963Y0095500D01*
X0023731Y0095500D01*
X0024498Y0096267D01*
X0024498Y0100104D02*
X0024498Y0103173D01*
X0024498Y0104708D02*
X0026033Y0104708D01*
X0026800Y0105475D01*
X0026800Y0107010D01*
X0026033Y0107777D01*
X0024498Y0107777D01*
X0023731Y0107010D01*
X0023731Y0105475D01*
X0024498Y0104708D01*
X0023731Y0109312D02*
X0026033Y0109312D01*
X0026800Y0110079D01*
X0026800Y0112381D01*
X0023731Y0112381D01*
X0023731Y0113916D02*
X0023731Y0115450D01*
X0022963Y0114683D02*
X0026033Y0114683D01*
X0026800Y0115450D01*
X0017151Y0115101D02*
X0016551Y0114500D01*
X0015350Y0114500D01*
X0014749Y0115101D01*
X0014749Y0116302D02*
X0015950Y0116902D01*
X0016551Y0116902D01*
X0017151Y0116302D01*
X0017151Y0115101D01*
X0014749Y0116302D02*
X0014749Y0118103D01*
X0017151Y0118103D01*
X0013468Y0117503D02*
X0012868Y0118103D01*
X0011066Y0118103D01*
X0011066Y0114500D01*
X0012868Y0114500D01*
X0013468Y0115101D01*
X0013468Y0117503D01*
X0009785Y0116902D02*
X0009785Y0114500D01*
X0009785Y0116302D02*
X0007383Y0116302D01*
X0007383Y0116902D02*
X0008584Y0118103D01*
X0009785Y0116902D01*
X0007383Y0116902D02*
X0007383Y0114500D01*
X0006102Y0116302D02*
X0005502Y0115701D01*
X0003700Y0115701D01*
X0003700Y0114500D02*
X0003700Y0118103D01*
X0005502Y0118103D01*
X0006102Y0117503D01*
X0006102Y0116302D01*
X0021196Y0127500D02*
X0021196Y0130569D01*
X0021963Y0130569D01*
X0025033Y0127500D01*
X0025800Y0127500D01*
X0023498Y0132104D02*
X0023498Y0135173D01*
X0022731Y0136708D02*
X0022731Y0137475D01*
X0025800Y0137475D01*
X0025800Y0136708D02*
X0025800Y0138242D01*
X0025800Y0139777D02*
X0022731Y0139777D01*
X0022731Y0142079D01*
X0023498Y0142846D01*
X0025800Y0142846D01*
X0021196Y0137475D02*
X0020429Y0137475D01*
X0016551Y0145500D02*
X0015350Y0145500D01*
X0014749Y0146101D01*
X0013468Y0146101D02*
X0013468Y0148503D01*
X0012868Y0149103D01*
X0011066Y0149103D01*
X0011066Y0145500D01*
X0012868Y0145500D01*
X0013468Y0146101D01*
X0015950Y0147302D02*
X0016551Y0147302D01*
X0017151Y0146701D01*
X0017151Y0146101D01*
X0016551Y0145500D01*
X0016551Y0147302D02*
X0017151Y0147902D01*
X0017151Y0148503D01*
X0016551Y0149103D01*
X0015350Y0149103D01*
X0014749Y0148503D01*
X0009785Y0147902D02*
X0009785Y0145500D01*
X0009785Y0147302D02*
X0007383Y0147302D01*
X0007383Y0147902D02*
X0008584Y0149103D01*
X0009785Y0147902D01*
X0007383Y0147902D02*
X0007383Y0145500D01*
X0006102Y0147302D02*
X0005502Y0146701D01*
X0003700Y0146701D01*
X0003700Y0145500D02*
X0003700Y0149103D01*
X0005502Y0149103D01*
X0006102Y0148503D01*
X0006102Y0147302D01*
X0020696Y0154767D02*
X0020696Y0156302D01*
X0021463Y0157069D01*
X0022231Y0157069D01*
X0022998Y0156302D01*
X0022998Y0154767D01*
X0022231Y0154000D01*
X0021463Y0154000D01*
X0020696Y0154767D01*
X0022998Y0154767D02*
X0023765Y0154000D01*
X0024533Y0154000D01*
X0025300Y0154767D01*
X0025300Y0156302D01*
X0024533Y0157069D01*
X0023765Y0157069D01*
X0022998Y0156302D01*
X0022998Y0158604D02*
X0022998Y0161673D01*
X0022231Y0163208D02*
X0022231Y0163975D01*
X0025300Y0163975D01*
X0025300Y0163208D02*
X0025300Y0164742D01*
X0025300Y0166277D02*
X0022231Y0166277D01*
X0022231Y0168579D01*
X0022998Y0169346D01*
X0025300Y0169346D01*
X0020696Y0163975D02*
X0019929Y0163975D01*
X0016551Y0170500D02*
X0016551Y0174103D01*
X0014749Y0172302D01*
X0017151Y0172302D01*
X0013468Y0171101D02*
X0013468Y0173503D01*
X0012868Y0174103D01*
X0011066Y0174103D01*
X0011066Y0170500D01*
X0012868Y0170500D01*
X0013468Y0171101D01*
X0009785Y0170500D02*
X0009785Y0172902D01*
X0008584Y0174103D01*
X0007383Y0172902D01*
X0007383Y0170500D01*
X0007383Y0172302D02*
X0009785Y0172302D01*
X0006102Y0172302D02*
X0005502Y0171701D01*
X0003700Y0171701D01*
X0003700Y0170500D02*
X0003700Y0174103D01*
X0005502Y0174103D01*
X0006102Y0173503D01*
X0006102Y0172302D01*
X0005502Y0092103D02*
X0003700Y0092103D01*
X0003700Y0088500D01*
X0003700Y0089701D02*
X0005502Y0089701D01*
X0006102Y0090302D01*
X0006102Y0091503D01*
X0005502Y0092103D01*
X0007383Y0090902D02*
X0008584Y0092103D01*
X0009785Y0090902D01*
X0009785Y0088500D01*
X0011066Y0088500D02*
X0012868Y0088500D01*
X0013468Y0089101D01*
X0013468Y0091503D01*
X0012868Y0092103D01*
X0011066Y0092103D01*
X0011066Y0088500D01*
X0009785Y0090302D02*
X0007383Y0090302D01*
X0007383Y0090902D02*
X0007383Y0088500D01*
X0014749Y0089101D02*
X0015350Y0088500D01*
X0016551Y0088500D01*
X0017151Y0089101D01*
X0017151Y0089701D01*
X0016551Y0090302D01*
X0014749Y0090302D01*
X0014749Y0089101D01*
X0014749Y0090302D02*
X0015950Y0091503D01*
X0017151Y0092103D01*
X0022963Y0085683D02*
X0026033Y0085683D01*
X0026800Y0086450D01*
X0026800Y0083381D02*
X0023731Y0083381D01*
X0023731Y0084916D02*
X0023731Y0086450D01*
X0026800Y0083381D02*
X0026800Y0081079D01*
X0026033Y0080312D01*
X0023731Y0080312D01*
X0024498Y0078777D02*
X0023731Y0078010D01*
X0023731Y0076475D01*
X0024498Y0075708D01*
X0026033Y0075708D01*
X0026800Y0076475D01*
X0026800Y0078010D01*
X0026033Y0078777D01*
X0024498Y0078777D01*
X0024498Y0074173D02*
X0024498Y0071104D01*
X0022963Y0069569D02*
X0026033Y0066500D01*
X0026800Y0066500D01*
X0022196Y0066500D02*
X0022196Y0069569D01*
X0022963Y0069569D01*
X0037992Y0080500D02*
X0037992Y0085104D01*
X0040294Y0085104D01*
X0041061Y0084337D01*
X0041061Y0082802D01*
X0040294Y0082035D01*
X0037992Y0082035D01*
X0039527Y0082035D02*
X0041061Y0080500D01*
X0042596Y0081267D02*
X0043363Y0080500D01*
X0044898Y0080500D01*
X0045665Y0081267D01*
X0045665Y0082035D01*
X0044898Y0082802D01*
X0044131Y0082802D01*
X0044898Y0082802D02*
X0045665Y0083569D01*
X0045665Y0084337D01*
X0044898Y0085104D01*
X0043363Y0085104D01*
X0042596Y0084337D01*
X0044759Y0060604D02*
X0043992Y0059837D01*
X0043992Y0056767D01*
X0044759Y0056000D01*
X0046294Y0056000D01*
X0047061Y0056767D01*
X0048596Y0056000D02*
X0051665Y0056000D01*
X0050131Y0056000D02*
X0050131Y0060604D01*
X0048596Y0059069D01*
X0047061Y0059837D02*
X0046294Y0060604D01*
X0044759Y0060604D01*
X0068604Y0061189D02*
X0070139Y0061189D01*
X0069371Y0061189D02*
X0069371Y0056585D01*
X0068604Y0056585D02*
X0070139Y0056585D01*
X0071673Y0057352D02*
X0072441Y0056585D01*
X0073975Y0056585D01*
X0074743Y0057352D01*
X0076277Y0056585D02*
X0079346Y0059654D01*
X0079346Y0060421D01*
X0078579Y0061189D01*
X0077044Y0061189D01*
X0076277Y0060421D01*
X0074743Y0060421D02*
X0073975Y0061189D01*
X0072441Y0061189D01*
X0071673Y0060421D01*
X0071673Y0057352D01*
X0076277Y0056585D02*
X0079346Y0056585D01*
X0098196Y0039198D02*
X0098963Y0039965D01*
X0099731Y0039965D01*
X0102800Y0036896D01*
X0102800Y0039965D01*
X0098196Y0039198D02*
X0098196Y0037663D01*
X0098963Y0036896D01*
X0098963Y0035361D02*
X0098196Y0034594D01*
X0098196Y0033059D01*
X0098963Y0032292D01*
X0102033Y0032292D01*
X0102800Y0033059D01*
X0102800Y0034594D01*
X0102033Y0035361D01*
X0111696Y0035094D02*
X0111696Y0033559D01*
X0112463Y0032792D01*
X0113231Y0032792D01*
X0113998Y0033559D01*
X0113998Y0035094D01*
X0114765Y0035861D01*
X0115533Y0035861D01*
X0116300Y0035094D01*
X0116300Y0033559D01*
X0115533Y0032792D01*
X0112463Y0035861D02*
X0111696Y0035094D01*
X0113231Y0037396D02*
X0111696Y0038931D01*
X0116300Y0038931D01*
X0116300Y0040465D02*
X0116300Y0037396D01*
X0116656Y0015104D02*
X0115888Y0014337D01*
X0115888Y0011267D01*
X0116656Y0010500D01*
X0118190Y0010500D01*
X0118957Y0011267D01*
X0118957Y0012802D01*
X0117423Y0012802D01*
X0118957Y0014337D02*
X0118190Y0015104D01*
X0116656Y0015104D01*
X0120492Y0015104D02*
X0123561Y0010500D01*
X0123561Y0015104D01*
X0125096Y0015104D02*
X0127398Y0015104D01*
X0128165Y0014337D01*
X0128165Y0011267D01*
X0127398Y0010500D01*
X0125096Y0010500D01*
X0125096Y0015104D01*
X0120492Y0015104D02*
X0120492Y0010500D01*
X0113151Y0006503D02*
X0112551Y0007103D01*
X0111350Y0007103D01*
X0110749Y0006503D01*
X0109468Y0006503D02*
X0109468Y0004101D01*
X0108868Y0003500D01*
X0107066Y0003500D01*
X0107066Y0007103D01*
X0108868Y0007103D01*
X0109468Y0006503D01*
X0110749Y0003500D02*
X0113151Y0005902D01*
X0113151Y0006503D01*
X0113151Y0003500D02*
X0110749Y0003500D01*
X0105785Y0003500D02*
X0105785Y0005902D01*
X0104584Y0007103D01*
X0103383Y0005902D01*
X0103383Y0003500D01*
X0103383Y0005302D02*
X0105785Y0005302D01*
X0102102Y0005302D02*
X0101502Y0004701D01*
X0099700Y0004701D01*
X0099700Y0003500D02*
X0099700Y0007103D01*
X0101502Y0007103D01*
X0102102Y0006503D01*
X0102102Y0005302D01*
X0088151Y0003500D02*
X0085749Y0003500D01*
X0086950Y0003500D02*
X0086950Y0007103D01*
X0085749Y0005902D01*
X0084468Y0006503D02*
X0084468Y0004101D01*
X0083868Y0003500D01*
X0082066Y0003500D01*
X0082066Y0007103D01*
X0083868Y0007103D01*
X0084468Y0006503D01*
X0080785Y0005902D02*
X0080785Y0003500D01*
X0080785Y0005302D02*
X0078383Y0005302D01*
X0078383Y0005902D02*
X0078383Y0003500D01*
X0077102Y0005302D02*
X0076502Y0004701D01*
X0074700Y0004701D01*
X0074700Y0003500D02*
X0074700Y0007103D01*
X0076502Y0007103D01*
X0077102Y0006503D01*
X0077102Y0005302D01*
X0078383Y0005902D02*
X0079584Y0007103D01*
X0080785Y0005902D01*
X0070033Y0010535D02*
X0066963Y0010535D01*
X0068498Y0009000D02*
X0068498Y0012069D01*
X0067731Y0013604D02*
X0066196Y0015139D01*
X0070800Y0015139D01*
X0070800Y0016673D02*
X0070800Y0013604D01*
X0070800Y0018208D02*
X0067731Y0021277D01*
X0066963Y0021277D01*
X0066196Y0020510D01*
X0066196Y0018975D01*
X0066963Y0018208D01*
X0070800Y0018208D02*
X0070800Y0021277D01*
X0069265Y0022812D02*
X0070800Y0024346D01*
X0069265Y0025881D01*
X0066196Y0025881D01*
X0066196Y0022812D02*
X0069265Y0022812D01*
D12*
X0073500Y0023800D02*
X0073500Y0021300D01*
X0073500Y0023800D02*
X0076000Y0023800D01*
X0086000Y0023800D02*
X0088500Y0023800D01*
X0088500Y0021300D01*
X0098500Y0021300D02*
X0098500Y0023800D01*
X0101000Y0023800D01*
X0111000Y0023800D02*
X0113500Y0023800D01*
X0113500Y0021300D01*
X0113500Y0011300D02*
X0113500Y0008800D01*
X0111000Y0008800D01*
X0101000Y0008800D02*
X0098500Y0008800D01*
X0098500Y0011300D01*
X0088500Y0011300D02*
X0088500Y0008800D01*
X0086000Y0008800D01*
X0076000Y0008800D02*
X0073500Y0008800D01*
X0073500Y0011300D01*
X0038713Y0025891D02*
X0038716Y0026173D01*
X0038727Y0026455D01*
X0038744Y0026737D01*
X0038768Y0027018D01*
X0038799Y0027299D01*
X0038837Y0027578D01*
X0038882Y0027857D01*
X0038934Y0028135D01*
X0038992Y0028411D01*
X0039058Y0028685D01*
X0039130Y0028958D01*
X0039208Y0029229D01*
X0039293Y0029498D01*
X0039385Y0029765D01*
X0039484Y0030030D01*
X0039588Y0030292D01*
X0039700Y0030551D01*
X0039817Y0030808D01*
X0039941Y0031062D01*
X0040071Y0031312D01*
X0040207Y0031559D01*
X0040349Y0031803D01*
X0040497Y0032043D01*
X0040651Y0032280D01*
X0040811Y0032513D01*
X0040976Y0032742D01*
X0041147Y0032966D01*
X0041323Y0033187D01*
X0041505Y0033402D01*
X0041692Y0033614D01*
X0041884Y0033821D01*
X0042081Y0034023D01*
X0042283Y0034220D01*
X0042490Y0034412D01*
X0042702Y0034599D01*
X0042917Y0034781D01*
X0043138Y0034957D01*
X0043362Y0035128D01*
X0043591Y0035293D01*
X0043824Y0035453D01*
X0044061Y0035607D01*
X0044301Y0035755D01*
X0044545Y0035897D01*
X0044792Y0036033D01*
X0045042Y0036163D01*
X0045296Y0036287D01*
X0045553Y0036404D01*
X0045812Y0036516D01*
X0046074Y0036620D01*
X0046339Y0036719D01*
X0046606Y0036811D01*
X0046875Y0036896D01*
X0047146Y0036974D01*
X0047419Y0037046D01*
X0047693Y0037112D01*
X0047969Y0037170D01*
X0048247Y0037222D01*
X0048526Y0037267D01*
X0048805Y0037305D01*
X0049086Y0037336D01*
X0049367Y0037360D01*
X0049649Y0037377D01*
X0049931Y0037388D01*
X0050213Y0037391D01*
X0050495Y0037388D01*
X0050777Y0037377D01*
X0051059Y0037360D01*
X0051340Y0037336D01*
X0051621Y0037305D01*
X0051900Y0037267D01*
X0052179Y0037222D01*
X0052457Y0037170D01*
X0052733Y0037112D01*
X0053007Y0037046D01*
X0053280Y0036974D01*
X0053551Y0036896D01*
X0053820Y0036811D01*
X0054087Y0036719D01*
X0054352Y0036620D01*
X0054614Y0036516D01*
X0054873Y0036404D01*
X0055130Y0036287D01*
X0055384Y0036163D01*
X0055634Y0036033D01*
X0055881Y0035897D01*
X0056125Y0035755D01*
X0056365Y0035607D01*
X0056602Y0035453D01*
X0056835Y0035293D01*
X0057064Y0035128D01*
X0057288Y0034957D01*
X0057509Y0034781D01*
X0057724Y0034599D01*
X0057936Y0034412D01*
X0058143Y0034220D01*
X0058345Y0034023D01*
X0058542Y0033821D01*
X0058734Y0033614D01*
X0058921Y0033402D01*
X0059103Y0033187D01*
X0059279Y0032966D01*
X0059450Y0032742D01*
X0059615Y0032513D01*
X0059775Y0032280D01*
X0059929Y0032043D01*
X0060077Y0031803D01*
X0060219Y0031559D01*
X0060355Y0031312D01*
X0060485Y0031062D01*
X0060609Y0030808D01*
X0060726Y0030551D01*
X0060838Y0030292D01*
X0060942Y0030030D01*
X0061041Y0029765D01*
X0061133Y0029498D01*
X0061218Y0029229D01*
X0061296Y0028958D01*
X0061368Y0028685D01*
X0061434Y0028411D01*
X0061492Y0028135D01*
X0061544Y0027857D01*
X0061589Y0027578D01*
X0061627Y0027299D01*
X0061658Y0027018D01*
X0061682Y0026737D01*
X0061699Y0026455D01*
X0061710Y0026173D01*
X0061713Y0025891D01*
X0061710Y0025609D01*
X0061699Y0025327D01*
X0061682Y0025045D01*
X0061658Y0024764D01*
X0061627Y0024483D01*
X0061589Y0024204D01*
X0061544Y0023925D01*
X0061492Y0023647D01*
X0061434Y0023371D01*
X0061368Y0023097D01*
X0061296Y0022824D01*
X0061218Y0022553D01*
X0061133Y0022284D01*
X0061041Y0022017D01*
X0060942Y0021752D01*
X0060838Y0021490D01*
X0060726Y0021231D01*
X0060609Y0020974D01*
X0060485Y0020720D01*
X0060355Y0020470D01*
X0060219Y0020223D01*
X0060077Y0019979D01*
X0059929Y0019739D01*
X0059775Y0019502D01*
X0059615Y0019269D01*
X0059450Y0019040D01*
X0059279Y0018816D01*
X0059103Y0018595D01*
X0058921Y0018380D01*
X0058734Y0018168D01*
X0058542Y0017961D01*
X0058345Y0017759D01*
X0058143Y0017562D01*
X0057936Y0017370D01*
X0057724Y0017183D01*
X0057509Y0017001D01*
X0057288Y0016825D01*
X0057064Y0016654D01*
X0056835Y0016489D01*
X0056602Y0016329D01*
X0056365Y0016175D01*
X0056125Y0016027D01*
X0055881Y0015885D01*
X0055634Y0015749D01*
X0055384Y0015619D01*
X0055130Y0015495D01*
X0054873Y0015378D01*
X0054614Y0015266D01*
X0054352Y0015162D01*
X0054087Y0015063D01*
X0053820Y0014971D01*
X0053551Y0014886D01*
X0053280Y0014808D01*
X0053007Y0014736D01*
X0052733Y0014670D01*
X0052457Y0014612D01*
X0052179Y0014560D01*
X0051900Y0014515D01*
X0051621Y0014477D01*
X0051340Y0014446D01*
X0051059Y0014422D01*
X0050777Y0014405D01*
X0050495Y0014394D01*
X0050213Y0014391D01*
X0049931Y0014394D01*
X0049649Y0014405D01*
X0049367Y0014422D01*
X0049086Y0014446D01*
X0048805Y0014477D01*
X0048526Y0014515D01*
X0048247Y0014560D01*
X0047969Y0014612D01*
X0047693Y0014670D01*
X0047419Y0014736D01*
X0047146Y0014808D01*
X0046875Y0014886D01*
X0046606Y0014971D01*
X0046339Y0015063D01*
X0046074Y0015162D01*
X0045812Y0015266D01*
X0045553Y0015378D01*
X0045296Y0015495D01*
X0045042Y0015619D01*
X0044792Y0015749D01*
X0044545Y0015885D01*
X0044301Y0016027D01*
X0044061Y0016175D01*
X0043824Y0016329D01*
X0043591Y0016489D01*
X0043362Y0016654D01*
X0043138Y0016825D01*
X0042917Y0017001D01*
X0042702Y0017183D01*
X0042490Y0017370D01*
X0042283Y0017562D01*
X0042081Y0017759D01*
X0041884Y0017961D01*
X0041692Y0018168D01*
X0041505Y0018380D01*
X0041323Y0018595D01*
X0041147Y0018816D01*
X0040976Y0019040D01*
X0040811Y0019269D01*
X0040651Y0019502D01*
X0040497Y0019739D01*
X0040349Y0019979D01*
X0040207Y0020223D01*
X0040071Y0020470D01*
X0039941Y0020720D01*
X0039817Y0020974D01*
X0039700Y0021231D01*
X0039588Y0021490D01*
X0039484Y0021752D01*
X0039385Y0022017D01*
X0039293Y0022284D01*
X0039208Y0022553D01*
X0039130Y0022824D01*
X0039058Y0023097D01*
X0038992Y0023371D01*
X0038934Y0023647D01*
X0038882Y0023925D01*
X0038837Y0024204D01*
X0038799Y0024483D01*
X0038768Y0024764D01*
X0038744Y0025045D01*
X0038727Y0025327D01*
X0038716Y0025609D01*
X0038713Y0025891D01*
X0024000Y0039800D02*
X0024000Y0010800D01*
X0023998Y0010702D01*
X0023992Y0010604D01*
X0023983Y0010506D01*
X0023969Y0010409D01*
X0023952Y0010312D01*
X0023931Y0010216D01*
X0023906Y0010121D01*
X0023878Y0010027D01*
X0023845Y0009935D01*
X0023810Y0009843D01*
X0023770Y0009753D01*
X0023728Y0009665D01*
X0023681Y0009578D01*
X0023632Y0009494D01*
X0023579Y0009411D01*
X0023523Y0009331D01*
X0023463Y0009252D01*
X0023401Y0009176D01*
X0023336Y0009103D01*
X0023268Y0009032D01*
X0023197Y0008964D01*
X0023124Y0008899D01*
X0023048Y0008837D01*
X0022969Y0008777D01*
X0022889Y0008721D01*
X0022806Y0008668D01*
X0022722Y0008619D01*
X0022635Y0008572D01*
X0022547Y0008530D01*
X0022457Y0008490D01*
X0022365Y0008455D01*
X0022273Y0008422D01*
X0022179Y0008394D01*
X0022084Y0008369D01*
X0021988Y0008348D01*
X0021891Y0008331D01*
X0021794Y0008317D01*
X0021696Y0008308D01*
X0021598Y0008302D01*
X0021500Y0008300D01*
X0010500Y0008300D01*
X0010402Y0008302D01*
X0010304Y0008308D01*
X0010206Y0008317D01*
X0010109Y0008331D01*
X0010012Y0008348D01*
X0009916Y0008369D01*
X0009821Y0008394D01*
X0009727Y0008422D01*
X0009635Y0008455D01*
X0009543Y0008490D01*
X0009453Y0008530D01*
X0009365Y0008572D01*
X0009278Y0008619D01*
X0009194Y0008668D01*
X0009111Y0008721D01*
X0009031Y0008777D01*
X0008952Y0008837D01*
X0008876Y0008899D01*
X0008803Y0008964D01*
X0008732Y0009032D01*
X0008664Y0009103D01*
X0008599Y0009176D01*
X0008537Y0009252D01*
X0008477Y0009331D01*
X0008421Y0009411D01*
X0008368Y0009494D01*
X0008319Y0009578D01*
X0008272Y0009665D01*
X0008230Y0009753D01*
X0008190Y0009843D01*
X0008155Y0009935D01*
X0008122Y0010027D01*
X0008094Y0010121D01*
X0008069Y0010216D01*
X0008048Y0010312D01*
X0008031Y0010409D01*
X0008017Y0010506D01*
X0008008Y0010604D01*
X0008002Y0010702D01*
X0008000Y0010800D01*
X0008000Y0039800D01*
X0008002Y0039898D01*
X0008008Y0039996D01*
X0008017Y0040094D01*
X0008031Y0040191D01*
X0008048Y0040288D01*
X0008069Y0040384D01*
X0008094Y0040479D01*
X0008122Y0040573D01*
X0008155Y0040665D01*
X0008190Y0040757D01*
X0008230Y0040847D01*
X0008272Y0040935D01*
X0008319Y0041022D01*
X0008368Y0041106D01*
X0008421Y0041189D01*
X0008477Y0041269D01*
X0008537Y0041348D01*
X0008599Y0041424D01*
X0008664Y0041497D01*
X0008732Y0041568D01*
X0008803Y0041636D01*
X0008876Y0041701D01*
X0008952Y0041763D01*
X0009031Y0041823D01*
X0009111Y0041879D01*
X0009194Y0041932D01*
X0009278Y0041981D01*
X0009365Y0042028D01*
X0009453Y0042070D01*
X0009543Y0042110D01*
X0009635Y0042145D01*
X0009727Y0042178D01*
X0009821Y0042206D01*
X0009916Y0042231D01*
X0010012Y0042252D01*
X0010109Y0042269D01*
X0010206Y0042283D01*
X0010304Y0042292D01*
X0010402Y0042298D01*
X0010500Y0042300D01*
X0021500Y0042300D01*
X0021598Y0042298D01*
X0021696Y0042292D01*
X0021794Y0042283D01*
X0021891Y0042269D01*
X0021988Y0042252D01*
X0022084Y0042231D01*
X0022179Y0042206D01*
X0022273Y0042178D01*
X0022365Y0042145D01*
X0022457Y0042110D01*
X0022547Y0042070D01*
X0022635Y0042028D01*
X0022722Y0041981D01*
X0022806Y0041932D01*
X0022889Y0041879D01*
X0022969Y0041823D01*
X0023048Y0041763D01*
X0023124Y0041701D01*
X0023197Y0041636D01*
X0023268Y0041568D01*
X0023336Y0041497D01*
X0023401Y0041424D01*
X0023463Y0041348D01*
X0023523Y0041269D01*
X0023579Y0041189D01*
X0023632Y0041106D01*
X0023681Y0041022D01*
X0023728Y0040935D01*
X0023770Y0040847D01*
X0023810Y0040757D01*
X0023845Y0040665D01*
X0023878Y0040573D01*
X0023906Y0040479D01*
X0023931Y0040384D01*
X0023952Y0040288D01*
X0023969Y0040191D01*
X0023983Y0040094D01*
X0023992Y0039996D01*
X0023998Y0039898D01*
X0024000Y0039800D01*
X0018500Y0071800D02*
X0016000Y0071800D01*
X0018500Y0071800D02*
X0018500Y0074300D01*
X0018500Y0084300D02*
X0018500Y0086800D01*
X0016000Y0086800D01*
X0006000Y0086800D02*
X0003500Y0086800D01*
X0003500Y0084300D01*
X0003500Y0074300D02*
X0003500Y0071800D01*
X0006000Y0071800D01*
X0006000Y0097800D02*
X0003500Y0097800D01*
X0003500Y0100300D01*
X0003500Y0110300D02*
X0003500Y0112800D01*
X0006000Y0112800D01*
X0016000Y0112800D02*
X0018500Y0112800D01*
X0018500Y0110300D01*
X0018500Y0100300D02*
X0018500Y0097800D01*
X0016000Y0097800D01*
X0016000Y0128800D02*
X0018500Y0128800D01*
X0018500Y0131300D01*
X0028000Y0129800D02*
X0033500Y0129800D01*
X0038500Y0129800D02*
X0043500Y0129800D01*
X0048500Y0129800D02*
X0053500Y0129800D01*
X0058500Y0129800D02*
X0063500Y0129800D01*
X0068500Y0129800D02*
X0073500Y0129800D01*
X0078500Y0129800D02*
X0084000Y0129800D01*
X0084000Y0166800D01*
X0078500Y0166800D01*
X0073500Y0166800D02*
X0068500Y0166800D01*
X0063500Y0166800D02*
X0058500Y0166800D01*
X0053500Y0166800D02*
X0048500Y0166800D01*
X0043500Y0166800D02*
X0038500Y0166800D01*
X0033500Y0166800D02*
X0028000Y0166800D01*
X0028000Y0129800D01*
X0018500Y0141300D02*
X0018500Y0143800D01*
X0016000Y0143800D01*
X0006000Y0143800D02*
X0003500Y0143800D01*
X0003500Y0141300D01*
X0003500Y0131300D02*
X0003500Y0128800D01*
X0006000Y0128800D01*
X0006000Y0153800D02*
X0003500Y0153800D01*
X0003500Y0156300D01*
X0003500Y0166300D02*
X0003500Y0168800D01*
X0006000Y0168800D01*
X0016000Y0168800D02*
X0018500Y0168800D01*
X0018500Y0166300D01*
X0018500Y0156300D02*
X0018500Y0153800D01*
X0016000Y0153800D01*
X0046000Y0154800D02*
X0053500Y0154800D01*
X0056000Y0157300D02*
X0058500Y0154800D01*
X0066000Y0154800D01*
X0066000Y0159800D01*
X0059200Y0154000D02*
X0058500Y0154800D01*
X0056000Y0157300D02*
X0056000Y0159800D01*
X0046000Y0159800D02*
X0046000Y0154800D01*
X0046000Y0141800D02*
X0053500Y0141800D01*
X0056000Y0139300D02*
X0058500Y0141800D01*
X0066000Y0141800D01*
X0066000Y0136800D01*
X0059200Y0142600D02*
X0058500Y0141800D01*
X0056000Y0139300D02*
X0056000Y0136800D01*
X0046000Y0136800D02*
X0046000Y0141800D01*
X0072500Y0145800D02*
X0079500Y0150800D01*
X0076000Y0150800D01*
X0072500Y0150800D01*
X0072500Y0145800D01*
X0076000Y0145800D01*
X0079500Y0145800D01*
X0079500Y0150800D01*
X0078500Y0152800D02*
X0078500Y0154800D01*
X0079500Y0153800D02*
X0077500Y0153800D01*
X0076000Y0150800D02*
X0076000Y0159800D01*
X0082000Y0158300D02*
X0082000Y0138300D01*
X0076000Y0136800D02*
X0076000Y0145800D01*
X0088000Y0129800D02*
X0093500Y0129800D01*
X0098500Y0129800D02*
X0103500Y0129800D01*
X0108500Y0129800D02*
X0113500Y0129800D01*
X0118500Y0129800D02*
X0123500Y0129800D01*
X0128500Y0129800D02*
X0133500Y0129800D01*
X0138500Y0129800D02*
X0144000Y0129800D01*
X0144000Y0166800D01*
X0138500Y0166800D01*
X0133500Y0166800D02*
X0128500Y0166800D01*
X0123500Y0166800D02*
X0118500Y0166800D01*
X0113500Y0166800D02*
X0108500Y0166800D01*
X0103500Y0166800D02*
X0098500Y0166800D01*
X0093500Y0166800D02*
X0088000Y0166800D01*
X0088000Y0129800D01*
X0088000Y0121800D02*
X0088000Y0084800D01*
X0093500Y0084800D01*
X0098500Y0084800D02*
X0103500Y0084800D01*
X0108500Y0084800D02*
X0113500Y0084800D01*
X0118500Y0084800D02*
X0123500Y0084800D01*
X0128500Y0084800D02*
X0133500Y0084800D01*
X0138500Y0084800D02*
X0144000Y0084800D01*
X0144000Y0121800D01*
X0138500Y0121800D01*
X0133500Y0121800D02*
X0128500Y0121800D01*
X0123500Y0121800D02*
X0118500Y0121800D01*
X0113500Y0121800D02*
X0108500Y0121800D01*
X0103500Y0121800D02*
X0098500Y0121800D01*
X0093500Y0121800D02*
X0088000Y0121800D01*
X0106000Y0114800D02*
X0106000Y0109800D01*
X0113500Y0109800D01*
X0116000Y0112300D02*
X0118500Y0109800D01*
X0126000Y0109800D01*
X0126000Y0114800D01*
X0119200Y0109000D02*
X0118500Y0109800D01*
X0116000Y0112300D02*
X0116000Y0114800D01*
X0132500Y0105800D02*
X0136000Y0105800D01*
X0136000Y0114800D01*
X0138500Y0109800D02*
X0138500Y0107800D01*
X0139500Y0108800D02*
X0137500Y0108800D01*
X0136000Y0105800D02*
X0139500Y0105800D01*
X0132500Y0100800D01*
X0136000Y0100800D01*
X0139500Y0100800D01*
X0139500Y0105800D01*
X0136000Y0100800D02*
X0136000Y0091800D01*
X0142000Y0093300D02*
X0142000Y0113300D01*
X0132500Y0105800D02*
X0132500Y0100800D01*
X0126000Y0096800D02*
X0118500Y0096800D01*
X0119200Y0097600D01*
X0118500Y0096800D02*
X0116000Y0094300D01*
X0116000Y0091800D01*
X0113500Y0096800D02*
X0106000Y0096800D01*
X0106000Y0091800D01*
X0126000Y0091800D02*
X0126000Y0096800D01*
X0157500Y0075300D02*
X0165000Y0075300D01*
X0165002Y0075426D01*
X0165008Y0075551D01*
X0165018Y0075676D01*
X0165032Y0075801D01*
X0165049Y0075926D01*
X0165071Y0076050D01*
X0165096Y0076173D01*
X0165126Y0076295D01*
X0165159Y0076416D01*
X0165196Y0076536D01*
X0165236Y0076655D01*
X0165281Y0076772D01*
X0165329Y0076889D01*
X0165381Y0077003D01*
X0165436Y0077116D01*
X0165495Y0077227D01*
X0165557Y0077336D01*
X0165623Y0077443D01*
X0165692Y0077548D01*
X0165764Y0077651D01*
X0165839Y0077752D01*
X0165918Y0077850D01*
X0166000Y0077945D01*
X0166084Y0078038D01*
X0166172Y0078128D01*
X0166262Y0078216D01*
X0166355Y0078300D01*
X0166450Y0078382D01*
X0166548Y0078461D01*
X0166649Y0078536D01*
X0166752Y0078608D01*
X0166857Y0078677D01*
X0166964Y0078743D01*
X0167073Y0078805D01*
X0167184Y0078864D01*
X0167297Y0078919D01*
X0167411Y0078971D01*
X0167528Y0079019D01*
X0167645Y0079064D01*
X0167764Y0079104D01*
X0167884Y0079141D01*
X0168005Y0079174D01*
X0168127Y0079204D01*
X0168250Y0079229D01*
X0168374Y0079251D01*
X0168499Y0079268D01*
X0168624Y0079282D01*
X0168749Y0079292D01*
X0168874Y0079298D01*
X0169000Y0079300D01*
X0169126Y0079298D01*
X0169251Y0079292D01*
X0169376Y0079282D01*
X0169501Y0079268D01*
X0169626Y0079251D01*
X0169750Y0079229D01*
X0169873Y0079204D01*
X0169995Y0079174D01*
X0170116Y0079141D01*
X0170236Y0079104D01*
X0170355Y0079064D01*
X0170472Y0079019D01*
X0170589Y0078971D01*
X0170703Y0078919D01*
X0170816Y0078864D01*
X0170927Y0078805D01*
X0171036Y0078743D01*
X0171143Y0078677D01*
X0171248Y0078608D01*
X0171351Y0078536D01*
X0171452Y0078461D01*
X0171550Y0078382D01*
X0171645Y0078300D01*
X0171738Y0078216D01*
X0171828Y0078128D01*
X0171916Y0078038D01*
X0172000Y0077945D01*
X0172082Y0077850D01*
X0172161Y0077752D01*
X0172236Y0077651D01*
X0172308Y0077548D01*
X0172377Y0077443D01*
X0172443Y0077336D01*
X0172505Y0077227D01*
X0172564Y0077116D01*
X0172619Y0077003D01*
X0172671Y0076889D01*
X0172719Y0076772D01*
X0172764Y0076655D01*
X0172804Y0076536D01*
X0172841Y0076416D01*
X0172874Y0076295D01*
X0172904Y0076173D01*
X0172929Y0076050D01*
X0172951Y0075926D01*
X0172968Y0075801D01*
X0172982Y0075676D01*
X0172992Y0075551D01*
X0172998Y0075426D01*
X0173000Y0075300D01*
X0180500Y0075300D01*
X0180500Y0155300D01*
X0157500Y0155300D01*
X0157500Y0075300D01*
X0190000Y0062800D02*
X0190000Y0057800D01*
X0192500Y0055300D01*
X0190000Y0052800D01*
X0190000Y0047800D01*
X0192500Y0045300D01*
X0190000Y0042800D01*
X0190000Y0037800D01*
X0192500Y0035300D01*
X0190000Y0032800D01*
X0190000Y0027800D01*
X0192500Y0025300D01*
X0190000Y0022800D01*
X0190000Y0017800D01*
X0192500Y0015300D01*
X0197500Y0015300D01*
X0200000Y0017800D01*
X0200000Y0022800D01*
X0197500Y0025300D01*
X0200000Y0027800D01*
X0200000Y0032800D01*
X0197500Y0035300D01*
X0200000Y0037800D01*
X0200000Y0042800D01*
X0197500Y0045300D01*
X0200000Y0047800D01*
X0200000Y0052800D01*
X0197500Y0055300D01*
X0200000Y0057800D01*
X0200000Y0062800D01*
X0197500Y0065300D01*
X0192500Y0065300D01*
X0190000Y0062800D01*
X0181000Y0045300D02*
X0141000Y0045300D01*
X0141000Y0037800D01*
X0141098Y0037798D01*
X0141196Y0037792D01*
X0141294Y0037783D01*
X0141391Y0037769D01*
X0141488Y0037752D01*
X0141584Y0037731D01*
X0141679Y0037706D01*
X0141773Y0037678D01*
X0141865Y0037645D01*
X0141957Y0037610D01*
X0142047Y0037570D01*
X0142135Y0037528D01*
X0142222Y0037481D01*
X0142306Y0037432D01*
X0142389Y0037379D01*
X0142469Y0037323D01*
X0142548Y0037263D01*
X0142624Y0037201D01*
X0142697Y0037136D01*
X0142768Y0037068D01*
X0142836Y0036997D01*
X0142901Y0036924D01*
X0142963Y0036848D01*
X0143023Y0036769D01*
X0143079Y0036689D01*
X0143132Y0036606D01*
X0143181Y0036522D01*
X0143228Y0036435D01*
X0143270Y0036347D01*
X0143310Y0036257D01*
X0143345Y0036165D01*
X0143378Y0036073D01*
X0143406Y0035979D01*
X0143431Y0035884D01*
X0143452Y0035788D01*
X0143469Y0035691D01*
X0143483Y0035594D01*
X0143492Y0035496D01*
X0143498Y0035398D01*
X0143500Y0035300D01*
X0143498Y0035202D01*
X0143492Y0035104D01*
X0143483Y0035006D01*
X0143469Y0034909D01*
X0143452Y0034812D01*
X0143431Y0034716D01*
X0143406Y0034621D01*
X0143378Y0034527D01*
X0143345Y0034435D01*
X0143310Y0034343D01*
X0143270Y0034253D01*
X0143228Y0034165D01*
X0143181Y0034078D01*
X0143132Y0033994D01*
X0143079Y0033911D01*
X0143023Y0033831D01*
X0142963Y0033752D01*
X0142901Y0033676D01*
X0142836Y0033603D01*
X0142768Y0033532D01*
X0142697Y0033464D01*
X0142624Y0033399D01*
X0142548Y0033337D01*
X0142469Y0033277D01*
X0142389Y0033221D01*
X0142306Y0033168D01*
X0142222Y0033119D01*
X0142135Y0033072D01*
X0142047Y0033030D01*
X0141957Y0032990D01*
X0141865Y0032955D01*
X0141773Y0032922D01*
X0141679Y0032894D01*
X0141584Y0032869D01*
X0141488Y0032848D01*
X0141391Y0032831D01*
X0141294Y0032817D01*
X0141196Y0032808D01*
X0141098Y0032802D01*
X0141000Y0032800D01*
X0141000Y0025300D01*
X0181000Y0025300D01*
X0181000Y0045300D01*
X0207000Y0025300D02*
X0207007Y0025889D01*
X0207029Y0026478D01*
X0207065Y0027066D01*
X0207116Y0027652D01*
X0207180Y0028238D01*
X0207260Y0028822D01*
X0207353Y0029403D01*
X0207461Y0029982D01*
X0207583Y0030558D01*
X0207719Y0031132D01*
X0207869Y0031701D01*
X0208033Y0032267D01*
X0208211Y0032828D01*
X0208403Y0033385D01*
X0208608Y0033937D01*
X0208827Y0034484D01*
X0209059Y0035026D01*
X0209304Y0035561D01*
X0209563Y0036091D01*
X0209834Y0036614D01*
X0210118Y0037130D01*
X0210415Y0037638D01*
X0210724Y0038140D01*
X0211045Y0038634D01*
X0211378Y0039119D01*
X0211723Y0039597D01*
X0212080Y0040066D01*
X0212448Y0040525D01*
X0212827Y0040976D01*
X0213217Y0041417D01*
X0213618Y0041849D01*
X0214029Y0042271D01*
X0214451Y0042682D01*
X0214883Y0043083D01*
X0215324Y0043473D01*
X0215775Y0043852D01*
X0216234Y0044220D01*
X0216703Y0044577D01*
X0217181Y0044922D01*
X0217666Y0045255D01*
X0218160Y0045576D01*
X0218662Y0045885D01*
X0219170Y0046182D01*
X0219686Y0046466D01*
X0220209Y0046737D01*
X0220739Y0046996D01*
X0221274Y0047241D01*
X0221816Y0047473D01*
X0222363Y0047692D01*
X0222915Y0047897D01*
X0223472Y0048089D01*
X0224033Y0048267D01*
X0224599Y0048431D01*
X0225168Y0048581D01*
X0225742Y0048717D01*
X0226318Y0048839D01*
X0226897Y0048947D01*
X0227478Y0049040D01*
X0228062Y0049120D01*
X0228648Y0049184D01*
X0229234Y0049235D01*
X0229822Y0049271D01*
X0230411Y0049293D01*
X0231000Y0049300D01*
X0231589Y0049293D01*
X0232178Y0049271D01*
X0232766Y0049235D01*
X0233352Y0049184D01*
X0233938Y0049120D01*
X0234522Y0049040D01*
X0235103Y0048947D01*
X0235682Y0048839D01*
X0236258Y0048717D01*
X0236832Y0048581D01*
X0237401Y0048431D01*
X0237967Y0048267D01*
X0238528Y0048089D01*
X0239085Y0047897D01*
X0239637Y0047692D01*
X0240184Y0047473D01*
X0240726Y0047241D01*
X0241261Y0046996D01*
X0241791Y0046737D01*
X0242314Y0046466D01*
X0242830Y0046182D01*
X0243338Y0045885D01*
X0243840Y0045576D01*
X0244334Y0045255D01*
X0244819Y0044922D01*
X0245297Y0044577D01*
X0245766Y0044220D01*
X0246225Y0043852D01*
X0246676Y0043473D01*
X0247117Y0043083D01*
X0247549Y0042682D01*
X0247971Y0042271D01*
X0248382Y0041849D01*
X0248783Y0041417D01*
X0249173Y0040976D01*
X0249552Y0040525D01*
X0249920Y0040066D01*
X0250277Y0039597D01*
X0250622Y0039119D01*
X0250955Y0038634D01*
X0251276Y0038140D01*
X0251585Y0037638D01*
X0251882Y0037130D01*
X0252166Y0036614D01*
X0252437Y0036091D01*
X0252696Y0035561D01*
X0252941Y0035026D01*
X0253173Y0034484D01*
X0253392Y0033937D01*
X0253597Y0033385D01*
X0253789Y0032828D01*
X0253967Y0032267D01*
X0254131Y0031701D01*
X0254281Y0031132D01*
X0254417Y0030558D01*
X0254539Y0029982D01*
X0254647Y0029403D01*
X0254740Y0028822D01*
X0254820Y0028238D01*
X0254884Y0027652D01*
X0254935Y0027066D01*
X0254971Y0026478D01*
X0254993Y0025889D01*
X0255000Y0025300D01*
X0254993Y0024711D01*
X0254971Y0024122D01*
X0254935Y0023534D01*
X0254884Y0022948D01*
X0254820Y0022362D01*
X0254740Y0021778D01*
X0254647Y0021197D01*
X0254539Y0020618D01*
X0254417Y0020042D01*
X0254281Y0019468D01*
X0254131Y0018899D01*
X0253967Y0018333D01*
X0253789Y0017772D01*
X0253597Y0017215D01*
X0253392Y0016663D01*
X0253173Y0016116D01*
X0252941Y0015574D01*
X0252696Y0015039D01*
X0252437Y0014509D01*
X0252166Y0013986D01*
X0251882Y0013470D01*
X0251585Y0012962D01*
X0251276Y0012460D01*
X0250955Y0011966D01*
X0250622Y0011481D01*
X0250277Y0011003D01*
X0249920Y0010534D01*
X0249552Y0010075D01*
X0249173Y0009624D01*
X0248783Y0009183D01*
X0248382Y0008751D01*
X0247971Y0008329D01*
X0247549Y0007918D01*
X0247117Y0007517D01*
X0246676Y0007127D01*
X0246225Y0006748D01*
X0245766Y0006380D01*
X0245297Y0006023D01*
X0244819Y0005678D01*
X0244334Y0005345D01*
X0243840Y0005024D01*
X0243338Y0004715D01*
X0242830Y0004418D01*
X0242314Y0004134D01*
X0241791Y0003863D01*
X0241261Y0003604D01*
X0240726Y0003359D01*
X0240184Y0003127D01*
X0239637Y0002908D01*
X0239085Y0002703D01*
X0238528Y0002511D01*
X0237967Y0002333D01*
X0237401Y0002169D01*
X0236832Y0002019D01*
X0236258Y0001883D01*
X0235682Y0001761D01*
X0235103Y0001653D01*
X0234522Y0001560D01*
X0233938Y0001480D01*
X0233352Y0001416D01*
X0232766Y0001365D01*
X0232178Y0001329D01*
X0231589Y0001307D01*
X0231000Y0001300D01*
X0230411Y0001307D01*
X0229822Y0001329D01*
X0229234Y0001365D01*
X0228648Y0001416D01*
X0228062Y0001480D01*
X0227478Y0001560D01*
X0226897Y0001653D01*
X0226318Y0001761D01*
X0225742Y0001883D01*
X0225168Y0002019D01*
X0224599Y0002169D01*
X0224033Y0002333D01*
X0223472Y0002511D01*
X0222915Y0002703D01*
X0222363Y0002908D01*
X0221816Y0003127D01*
X0221274Y0003359D01*
X0220739Y0003604D01*
X0220209Y0003863D01*
X0219686Y0004134D01*
X0219170Y0004418D01*
X0218662Y0004715D01*
X0218160Y0005024D01*
X0217666Y0005345D01*
X0217181Y0005678D01*
X0216703Y0006023D01*
X0216234Y0006380D01*
X0215775Y0006748D01*
X0215324Y0007127D01*
X0214883Y0007517D01*
X0214451Y0007918D01*
X0214029Y0008329D01*
X0213618Y0008751D01*
X0213217Y0009183D01*
X0212827Y0009624D01*
X0212448Y0010075D01*
X0212080Y0010534D01*
X0211723Y0011003D01*
X0211378Y0011481D01*
X0211045Y0011966D01*
X0210724Y0012460D01*
X0210415Y0012962D01*
X0210118Y0013470D01*
X0209834Y0013986D01*
X0209563Y0014509D01*
X0209304Y0015039D01*
X0209059Y0015574D01*
X0208827Y0016116D01*
X0208608Y0016663D01*
X0208403Y0017215D01*
X0208211Y0017772D01*
X0208033Y0018333D01*
X0207869Y0018899D01*
X0207719Y0019468D01*
X0207583Y0020042D01*
X0207461Y0020618D01*
X0207353Y0021197D01*
X0207260Y0021778D01*
X0207180Y0022362D01*
X0207116Y0022948D01*
X0207065Y0023534D01*
X0207029Y0024122D01*
X0207007Y0024711D01*
X0207000Y0025300D01*
X0226000Y0025300D02*
X0226002Y0025441D01*
X0226008Y0025582D01*
X0226018Y0025722D01*
X0226032Y0025862D01*
X0226050Y0026002D01*
X0226071Y0026141D01*
X0226097Y0026280D01*
X0226126Y0026418D01*
X0226160Y0026554D01*
X0226197Y0026690D01*
X0226238Y0026825D01*
X0226283Y0026959D01*
X0226332Y0027091D01*
X0226384Y0027222D01*
X0226440Y0027351D01*
X0226500Y0027478D01*
X0226563Y0027604D01*
X0226629Y0027728D01*
X0226700Y0027851D01*
X0226773Y0027971D01*
X0226850Y0028089D01*
X0226930Y0028205D01*
X0227014Y0028318D01*
X0227100Y0028429D01*
X0227190Y0028538D01*
X0227283Y0028644D01*
X0227378Y0028747D01*
X0227477Y0028848D01*
X0227578Y0028946D01*
X0227682Y0029041D01*
X0227789Y0029133D01*
X0227898Y0029222D01*
X0228010Y0029307D01*
X0228124Y0029390D01*
X0228240Y0029470D01*
X0228359Y0029546D01*
X0228480Y0029618D01*
X0228602Y0029688D01*
X0228727Y0029753D01*
X0228853Y0029816D01*
X0228981Y0029874D01*
X0229111Y0029929D01*
X0229242Y0029981D01*
X0229375Y0030028D01*
X0229509Y0030072D01*
X0229644Y0030113D01*
X0229780Y0030149D01*
X0229917Y0030181D01*
X0230055Y0030210D01*
X0230193Y0030235D01*
X0230333Y0030255D01*
X0230473Y0030272D01*
X0230613Y0030285D01*
X0230754Y0030294D01*
X0230894Y0030299D01*
X0231035Y0030300D01*
X0231176Y0030297D01*
X0231317Y0030290D01*
X0231457Y0030279D01*
X0231597Y0030264D01*
X0231737Y0030245D01*
X0231876Y0030223D01*
X0232014Y0030196D01*
X0232152Y0030166D01*
X0232288Y0030131D01*
X0232424Y0030093D01*
X0232558Y0030051D01*
X0232692Y0030005D01*
X0232824Y0029956D01*
X0232954Y0029902D01*
X0233083Y0029845D01*
X0233210Y0029785D01*
X0233336Y0029721D01*
X0233459Y0029653D01*
X0233581Y0029582D01*
X0233701Y0029508D01*
X0233818Y0029430D01*
X0233933Y0029349D01*
X0234046Y0029265D01*
X0234157Y0029178D01*
X0234265Y0029087D01*
X0234370Y0028994D01*
X0234473Y0028897D01*
X0234573Y0028798D01*
X0234670Y0028696D01*
X0234764Y0028591D01*
X0234855Y0028484D01*
X0234943Y0028374D01*
X0235028Y0028262D01*
X0235110Y0028147D01*
X0235189Y0028030D01*
X0235264Y0027911D01*
X0235336Y0027790D01*
X0235404Y0027667D01*
X0235469Y0027542D01*
X0235531Y0027415D01*
X0235588Y0027286D01*
X0235643Y0027156D01*
X0235693Y0027025D01*
X0235740Y0026892D01*
X0235783Y0026758D01*
X0235822Y0026622D01*
X0235857Y0026486D01*
X0235889Y0026349D01*
X0235916Y0026211D01*
X0235940Y0026072D01*
X0235960Y0025932D01*
X0235976Y0025792D01*
X0235988Y0025652D01*
X0235996Y0025511D01*
X0236000Y0025370D01*
X0236000Y0025230D01*
X0235996Y0025089D01*
X0235988Y0024948D01*
X0235976Y0024808D01*
X0235960Y0024668D01*
X0235940Y0024528D01*
X0235916Y0024389D01*
X0235889Y0024251D01*
X0235857Y0024114D01*
X0235822Y0023978D01*
X0235783Y0023842D01*
X0235740Y0023708D01*
X0235693Y0023575D01*
X0235643Y0023444D01*
X0235588Y0023314D01*
X0235531Y0023185D01*
X0235469Y0023058D01*
X0235404Y0022933D01*
X0235336Y0022810D01*
X0235264Y0022689D01*
X0235189Y0022570D01*
X0235110Y0022453D01*
X0235028Y0022338D01*
X0234943Y0022226D01*
X0234855Y0022116D01*
X0234764Y0022009D01*
X0234670Y0021904D01*
X0234573Y0021802D01*
X0234473Y0021703D01*
X0234370Y0021606D01*
X0234265Y0021513D01*
X0234157Y0021422D01*
X0234046Y0021335D01*
X0233933Y0021251D01*
X0233818Y0021170D01*
X0233701Y0021092D01*
X0233581Y0021018D01*
X0233459Y0020947D01*
X0233336Y0020879D01*
X0233210Y0020815D01*
X0233083Y0020755D01*
X0232954Y0020698D01*
X0232824Y0020644D01*
X0232692Y0020595D01*
X0232558Y0020549D01*
X0232424Y0020507D01*
X0232288Y0020469D01*
X0232152Y0020434D01*
X0232014Y0020404D01*
X0231876Y0020377D01*
X0231737Y0020355D01*
X0231597Y0020336D01*
X0231457Y0020321D01*
X0231317Y0020310D01*
X0231176Y0020303D01*
X0231035Y0020300D01*
X0230894Y0020301D01*
X0230754Y0020306D01*
X0230613Y0020315D01*
X0230473Y0020328D01*
X0230333Y0020345D01*
X0230193Y0020365D01*
X0230055Y0020390D01*
X0229917Y0020419D01*
X0229780Y0020451D01*
X0229644Y0020487D01*
X0229509Y0020528D01*
X0229375Y0020572D01*
X0229242Y0020619D01*
X0229111Y0020671D01*
X0228981Y0020726D01*
X0228853Y0020784D01*
X0228727Y0020847D01*
X0228602Y0020912D01*
X0228480Y0020982D01*
X0228359Y0021054D01*
X0228240Y0021130D01*
X0228124Y0021210D01*
X0228010Y0021293D01*
X0227898Y0021378D01*
X0227789Y0021467D01*
X0227682Y0021559D01*
X0227578Y0021654D01*
X0227477Y0021752D01*
X0227378Y0021853D01*
X0227283Y0021956D01*
X0227190Y0022062D01*
X0227100Y0022171D01*
X0227014Y0022282D01*
X0226930Y0022395D01*
X0226850Y0022511D01*
X0226773Y0022629D01*
X0226700Y0022749D01*
X0226629Y0022872D01*
X0226563Y0022996D01*
X0226500Y0023122D01*
X0226440Y0023249D01*
X0226384Y0023378D01*
X0226332Y0023509D01*
X0226283Y0023641D01*
X0226238Y0023775D01*
X0226197Y0023910D01*
X0226160Y0024046D01*
X0226126Y0024182D01*
X0226097Y0024320D01*
X0226071Y0024459D01*
X0226050Y0024598D01*
X0226032Y0024738D01*
X0226018Y0024878D01*
X0226008Y0025018D01*
X0226002Y0025159D01*
X0226000Y0025300D01*
X0242000Y0035300D02*
X0246000Y0035300D01*
X0241000Y0035300D02*
X0241002Y0035409D01*
X0241008Y0035518D01*
X0241018Y0035626D01*
X0241032Y0035734D01*
X0241049Y0035842D01*
X0241071Y0035949D01*
X0241096Y0036055D01*
X0241126Y0036159D01*
X0241159Y0036263D01*
X0241196Y0036366D01*
X0241236Y0036467D01*
X0241280Y0036566D01*
X0241328Y0036664D01*
X0241380Y0036761D01*
X0241434Y0036855D01*
X0241492Y0036947D01*
X0241554Y0037037D01*
X0241619Y0037124D01*
X0241686Y0037210D01*
X0241757Y0037293D01*
X0241831Y0037373D01*
X0241908Y0037450D01*
X0241987Y0037525D01*
X0242069Y0037596D01*
X0242154Y0037665D01*
X0242241Y0037730D01*
X0242330Y0037793D01*
X0242422Y0037851D01*
X0242516Y0037907D01*
X0242611Y0037959D01*
X0242709Y0038008D01*
X0242808Y0038053D01*
X0242909Y0038095D01*
X0243011Y0038132D01*
X0243114Y0038166D01*
X0243219Y0038197D01*
X0243325Y0038223D01*
X0243431Y0038246D01*
X0243539Y0038264D01*
X0243647Y0038279D01*
X0243755Y0038290D01*
X0243864Y0038297D01*
X0243973Y0038300D01*
X0244082Y0038299D01*
X0244191Y0038294D01*
X0244299Y0038285D01*
X0244407Y0038272D01*
X0244515Y0038255D01*
X0244622Y0038235D01*
X0244728Y0038210D01*
X0244833Y0038182D01*
X0244937Y0038150D01*
X0245040Y0038114D01*
X0245142Y0038074D01*
X0245242Y0038031D01*
X0245340Y0037984D01*
X0245437Y0037934D01*
X0245531Y0037880D01*
X0245624Y0037822D01*
X0245715Y0037762D01*
X0245803Y0037698D01*
X0245889Y0037631D01*
X0245972Y0037561D01*
X0246053Y0037488D01*
X0246131Y0037412D01*
X0246206Y0037333D01*
X0246279Y0037251D01*
X0246348Y0037167D01*
X0246414Y0037081D01*
X0246477Y0036992D01*
X0246537Y0036901D01*
X0246594Y0036808D01*
X0246647Y0036713D01*
X0246696Y0036616D01*
X0246742Y0036517D01*
X0246784Y0036417D01*
X0246823Y0036315D01*
X0246858Y0036211D01*
X0246889Y0036107D01*
X0246917Y0036002D01*
X0246940Y0035895D01*
X0246960Y0035788D01*
X0246976Y0035680D01*
X0246988Y0035572D01*
X0246996Y0035463D01*
X0247000Y0035354D01*
X0247000Y0035246D01*
X0246996Y0035137D01*
X0246988Y0035028D01*
X0246976Y0034920D01*
X0246960Y0034812D01*
X0246940Y0034705D01*
X0246917Y0034598D01*
X0246889Y0034493D01*
X0246858Y0034389D01*
X0246823Y0034285D01*
X0246784Y0034183D01*
X0246742Y0034083D01*
X0246696Y0033984D01*
X0246647Y0033887D01*
X0246594Y0033792D01*
X0246537Y0033699D01*
X0246477Y0033608D01*
X0246414Y0033519D01*
X0246348Y0033433D01*
X0246279Y0033349D01*
X0246206Y0033267D01*
X0246131Y0033188D01*
X0246053Y0033112D01*
X0245972Y0033039D01*
X0245889Y0032969D01*
X0245803Y0032902D01*
X0245715Y0032838D01*
X0245624Y0032778D01*
X0245531Y0032720D01*
X0245437Y0032666D01*
X0245340Y0032616D01*
X0245242Y0032569D01*
X0245142Y0032526D01*
X0245040Y0032486D01*
X0244937Y0032450D01*
X0244833Y0032418D01*
X0244728Y0032390D01*
X0244622Y0032365D01*
X0244515Y0032345D01*
X0244407Y0032328D01*
X0244299Y0032315D01*
X0244191Y0032306D01*
X0244082Y0032301D01*
X0243973Y0032300D01*
X0243864Y0032303D01*
X0243755Y0032310D01*
X0243647Y0032321D01*
X0243539Y0032336D01*
X0243431Y0032354D01*
X0243325Y0032377D01*
X0243219Y0032403D01*
X0243114Y0032434D01*
X0243011Y0032468D01*
X0242909Y0032505D01*
X0242808Y0032547D01*
X0242709Y0032592D01*
X0242611Y0032641D01*
X0242516Y0032693D01*
X0242422Y0032749D01*
X0242330Y0032807D01*
X0242241Y0032870D01*
X0242154Y0032935D01*
X0242069Y0033004D01*
X0241987Y0033075D01*
X0241908Y0033150D01*
X0241831Y0033227D01*
X0241757Y0033307D01*
X0241686Y0033390D01*
X0241619Y0033476D01*
X0241554Y0033563D01*
X0241492Y0033653D01*
X0241434Y0033745D01*
X0241380Y0033839D01*
X0241328Y0033936D01*
X0241280Y0034034D01*
X0241236Y0034133D01*
X0241196Y0034234D01*
X0241159Y0034337D01*
X0241126Y0034441D01*
X0241096Y0034545D01*
X0241071Y0034651D01*
X0241049Y0034758D01*
X0241032Y0034866D01*
X0241018Y0034974D01*
X0241008Y0035082D01*
X0241002Y0035191D01*
X0241000Y0035300D01*
X0244000Y0037300D02*
X0244000Y0033300D01*
X0246000Y0063800D02*
X0248500Y0063800D01*
X0248500Y0066300D01*
X0236000Y0063800D02*
X0233500Y0063800D01*
X0233500Y0066300D01*
X0233500Y0076300D02*
X0233500Y0078800D01*
X0236000Y0078800D01*
X0246000Y0078800D02*
X0248500Y0078800D01*
X0248500Y0076300D01*
X0248500Y0143800D02*
X0246000Y0143800D01*
X0248500Y0143800D02*
X0248500Y0146300D01*
X0236000Y0143800D02*
X0233500Y0143800D01*
X0233500Y0146300D01*
X0233500Y0156300D02*
X0233500Y0158800D01*
X0236000Y0158800D01*
X0246000Y0158800D02*
X0248500Y0158800D01*
X0248500Y0156300D01*
X0196193Y0151875D02*
X0196196Y0152157D01*
X0196207Y0152439D01*
X0196224Y0152721D01*
X0196248Y0153002D01*
X0196279Y0153283D01*
X0196317Y0153562D01*
X0196362Y0153841D01*
X0196414Y0154119D01*
X0196472Y0154395D01*
X0196538Y0154669D01*
X0196610Y0154942D01*
X0196688Y0155213D01*
X0196773Y0155482D01*
X0196865Y0155749D01*
X0196964Y0156014D01*
X0197068Y0156276D01*
X0197180Y0156535D01*
X0197297Y0156792D01*
X0197421Y0157046D01*
X0197551Y0157296D01*
X0197687Y0157543D01*
X0197829Y0157787D01*
X0197977Y0158027D01*
X0198131Y0158264D01*
X0198291Y0158497D01*
X0198456Y0158726D01*
X0198627Y0158950D01*
X0198803Y0159171D01*
X0198985Y0159386D01*
X0199172Y0159598D01*
X0199364Y0159805D01*
X0199561Y0160007D01*
X0199763Y0160204D01*
X0199970Y0160396D01*
X0200182Y0160583D01*
X0200397Y0160765D01*
X0200618Y0160941D01*
X0200842Y0161112D01*
X0201071Y0161277D01*
X0201304Y0161437D01*
X0201541Y0161591D01*
X0201781Y0161739D01*
X0202025Y0161881D01*
X0202272Y0162017D01*
X0202522Y0162147D01*
X0202776Y0162271D01*
X0203033Y0162388D01*
X0203292Y0162500D01*
X0203554Y0162604D01*
X0203819Y0162703D01*
X0204086Y0162795D01*
X0204355Y0162880D01*
X0204626Y0162958D01*
X0204899Y0163030D01*
X0205173Y0163096D01*
X0205449Y0163154D01*
X0205727Y0163206D01*
X0206006Y0163251D01*
X0206285Y0163289D01*
X0206566Y0163320D01*
X0206847Y0163344D01*
X0207129Y0163361D01*
X0207411Y0163372D01*
X0207693Y0163375D01*
X0207975Y0163372D01*
X0208257Y0163361D01*
X0208539Y0163344D01*
X0208820Y0163320D01*
X0209101Y0163289D01*
X0209380Y0163251D01*
X0209659Y0163206D01*
X0209937Y0163154D01*
X0210213Y0163096D01*
X0210487Y0163030D01*
X0210760Y0162958D01*
X0211031Y0162880D01*
X0211300Y0162795D01*
X0211567Y0162703D01*
X0211832Y0162604D01*
X0212094Y0162500D01*
X0212353Y0162388D01*
X0212610Y0162271D01*
X0212864Y0162147D01*
X0213114Y0162017D01*
X0213361Y0161881D01*
X0213605Y0161739D01*
X0213845Y0161591D01*
X0214082Y0161437D01*
X0214315Y0161277D01*
X0214544Y0161112D01*
X0214768Y0160941D01*
X0214989Y0160765D01*
X0215204Y0160583D01*
X0215416Y0160396D01*
X0215623Y0160204D01*
X0215825Y0160007D01*
X0216022Y0159805D01*
X0216214Y0159598D01*
X0216401Y0159386D01*
X0216583Y0159171D01*
X0216759Y0158950D01*
X0216930Y0158726D01*
X0217095Y0158497D01*
X0217255Y0158264D01*
X0217409Y0158027D01*
X0217557Y0157787D01*
X0217699Y0157543D01*
X0217835Y0157296D01*
X0217965Y0157046D01*
X0218089Y0156792D01*
X0218206Y0156535D01*
X0218318Y0156276D01*
X0218422Y0156014D01*
X0218521Y0155749D01*
X0218613Y0155482D01*
X0218698Y0155213D01*
X0218776Y0154942D01*
X0218848Y0154669D01*
X0218914Y0154395D01*
X0218972Y0154119D01*
X0219024Y0153841D01*
X0219069Y0153562D01*
X0219107Y0153283D01*
X0219138Y0153002D01*
X0219162Y0152721D01*
X0219179Y0152439D01*
X0219190Y0152157D01*
X0219193Y0151875D01*
X0219190Y0151593D01*
X0219179Y0151311D01*
X0219162Y0151029D01*
X0219138Y0150748D01*
X0219107Y0150467D01*
X0219069Y0150188D01*
X0219024Y0149909D01*
X0218972Y0149631D01*
X0218914Y0149355D01*
X0218848Y0149081D01*
X0218776Y0148808D01*
X0218698Y0148537D01*
X0218613Y0148268D01*
X0218521Y0148001D01*
X0218422Y0147736D01*
X0218318Y0147474D01*
X0218206Y0147215D01*
X0218089Y0146958D01*
X0217965Y0146704D01*
X0217835Y0146454D01*
X0217699Y0146207D01*
X0217557Y0145963D01*
X0217409Y0145723D01*
X0217255Y0145486D01*
X0217095Y0145253D01*
X0216930Y0145024D01*
X0216759Y0144800D01*
X0216583Y0144579D01*
X0216401Y0144364D01*
X0216214Y0144152D01*
X0216022Y0143945D01*
X0215825Y0143743D01*
X0215623Y0143546D01*
X0215416Y0143354D01*
X0215204Y0143167D01*
X0214989Y0142985D01*
X0214768Y0142809D01*
X0214544Y0142638D01*
X0214315Y0142473D01*
X0214082Y0142313D01*
X0213845Y0142159D01*
X0213605Y0142011D01*
X0213361Y0141869D01*
X0213114Y0141733D01*
X0212864Y0141603D01*
X0212610Y0141479D01*
X0212353Y0141362D01*
X0212094Y0141250D01*
X0211832Y0141146D01*
X0211567Y0141047D01*
X0211300Y0140955D01*
X0211031Y0140870D01*
X0210760Y0140792D01*
X0210487Y0140720D01*
X0210213Y0140654D01*
X0209937Y0140596D01*
X0209659Y0140544D01*
X0209380Y0140499D01*
X0209101Y0140461D01*
X0208820Y0140430D01*
X0208539Y0140406D01*
X0208257Y0140389D01*
X0207975Y0140378D01*
X0207693Y0140375D01*
X0207411Y0140378D01*
X0207129Y0140389D01*
X0206847Y0140406D01*
X0206566Y0140430D01*
X0206285Y0140461D01*
X0206006Y0140499D01*
X0205727Y0140544D01*
X0205449Y0140596D01*
X0205173Y0140654D01*
X0204899Y0140720D01*
X0204626Y0140792D01*
X0204355Y0140870D01*
X0204086Y0140955D01*
X0203819Y0141047D01*
X0203554Y0141146D01*
X0203292Y0141250D01*
X0203033Y0141362D01*
X0202776Y0141479D01*
X0202522Y0141603D01*
X0202272Y0141733D01*
X0202025Y0141869D01*
X0201781Y0142011D01*
X0201541Y0142159D01*
X0201304Y0142313D01*
X0201071Y0142473D01*
X0200842Y0142638D01*
X0200618Y0142809D01*
X0200397Y0142985D01*
X0200182Y0143167D01*
X0199970Y0143354D01*
X0199763Y0143546D01*
X0199561Y0143743D01*
X0199364Y0143945D01*
X0199172Y0144152D01*
X0198985Y0144364D01*
X0198803Y0144579D01*
X0198627Y0144800D01*
X0198456Y0145024D01*
X0198291Y0145253D01*
X0198131Y0145486D01*
X0197977Y0145723D01*
X0197829Y0145963D01*
X0197687Y0146207D01*
X0197551Y0146454D01*
X0197421Y0146704D01*
X0197297Y0146958D01*
X0197180Y0147215D01*
X0197068Y0147474D01*
X0196964Y0147736D01*
X0196865Y0148001D01*
X0196773Y0148268D01*
X0196688Y0148537D01*
X0196610Y0148808D01*
X0196538Y0149081D01*
X0196472Y0149355D01*
X0196414Y0149631D01*
X0196362Y0149909D01*
X0196317Y0150188D01*
X0196279Y0150467D01*
X0196248Y0150748D01*
X0196224Y0151029D01*
X0196207Y0151311D01*
X0196196Y0151593D01*
X0196193Y0151875D01*
X0142000Y0158300D02*
X0142000Y0138300D01*
X0136000Y0136800D02*
X0136000Y0145800D01*
X0132500Y0145800D01*
X0139500Y0150800D01*
X0136000Y0150800D01*
X0132500Y0150800D01*
X0132500Y0145800D01*
X0136000Y0145800D02*
X0139500Y0145800D01*
X0139500Y0150800D01*
X0138500Y0152800D02*
X0138500Y0154800D01*
X0139500Y0153800D02*
X0137500Y0153800D01*
X0136000Y0150800D02*
X0136000Y0159800D01*
X0126000Y0159800D02*
X0126000Y0154800D01*
X0118500Y0154800D01*
X0119200Y0154000D01*
X0118500Y0154800D02*
X0116000Y0157300D01*
X0116000Y0159800D01*
X0113500Y0154800D02*
X0106000Y0154800D01*
X0106000Y0159800D01*
X0106000Y0141800D02*
X0113500Y0141800D01*
X0116000Y0139300D02*
X0118500Y0141800D01*
X0126000Y0141800D01*
X0126000Y0136800D01*
X0119200Y0142600D02*
X0118500Y0141800D01*
X0116000Y0139300D02*
X0116000Y0136800D01*
X0106000Y0136800D02*
X0106000Y0141800D01*
D13*
X0093606Y0128054D02*
X0092105Y0128054D01*
X0091354Y0127303D01*
X0089753Y0128054D02*
X0086750Y0125051D01*
X0087501Y0125802D02*
X0089753Y0123550D01*
X0091354Y0123550D02*
X0094356Y0126553D01*
X0094356Y0127303D01*
X0093606Y0128054D01*
X0094356Y0123550D02*
X0091354Y0123550D01*
X0086750Y0123550D02*
X0086750Y0128054D01*
X0077875Y0114550D02*
X0076000Y0114550D01*
X0076000Y0115510D01*
X0076000Y0114550D02*
X0074125Y0114550D01*
X0076000Y0114550D02*
X0077875Y0112050D01*
X0076000Y0112050D01*
X0076000Y0111090D01*
X0076000Y0112050D02*
X0074125Y0112050D01*
X0076000Y0114550D01*
X0046210Y0105300D02*
X0045250Y0105300D01*
X0045250Y0103425D01*
X0045250Y0105300D02*
X0045250Y0107175D01*
X0045250Y0105300D02*
X0042750Y0103425D01*
X0042750Y0105300D01*
X0041790Y0105300D01*
X0042750Y0105300D02*
X0042750Y0107175D01*
X0045250Y0105300D01*
X0045250Y0093175D02*
X0045250Y0091300D01*
X0046210Y0091300D01*
X0045250Y0091300D02*
X0045250Y0089425D01*
X0045250Y0091300D02*
X0042750Y0089425D01*
X0042750Y0091300D01*
X0041790Y0091300D01*
X0042750Y0091300D02*
X0042750Y0093175D01*
X0045250Y0091300D01*
X0066750Y0076675D02*
X0066750Y0074800D01*
X0065790Y0074800D01*
X0066750Y0074800D02*
X0066750Y0072925D01*
X0066750Y0074800D02*
X0069250Y0076675D01*
X0069250Y0074800D01*
X0070210Y0074800D01*
X0069250Y0074800D02*
X0069250Y0072925D01*
X0066750Y0074800D01*
X0031541Y0044219D02*
X0031541Y0039715D01*
X0030040Y0039715D02*
X0033042Y0039715D01*
X0028438Y0040466D02*
X0028438Y0043469D01*
X0027688Y0044219D01*
X0025436Y0044219D01*
X0025436Y0039715D01*
X0027688Y0039715D01*
X0028438Y0040466D01*
X0030040Y0042718D02*
X0031541Y0044219D01*
X0030750Y0018656D02*
X0030750Y0015654D01*
X0030750Y0017155D02*
X0026246Y0017155D01*
X0027747Y0015654D01*
X0026246Y0014053D02*
X0026246Y0011050D01*
X0030750Y0011050D01*
X0028498Y0011050D02*
X0028498Y0012551D01*
X0118790Y0058800D02*
X0119750Y0058800D01*
X0119750Y0060675D01*
X0119750Y0058800D02*
X0119750Y0056925D01*
X0119750Y0058800D02*
X0122250Y0060675D01*
X0122250Y0058800D01*
X0123210Y0058800D01*
X0122250Y0058800D02*
X0122250Y0056925D01*
X0119750Y0058800D01*
X0166938Y0069801D02*
X0167689Y0069050D01*
X0169190Y0069050D01*
X0169941Y0069801D01*
X0169941Y0072803D01*
X0169190Y0073554D01*
X0167689Y0073554D01*
X0166938Y0072803D01*
X0166938Y0069801D01*
X0171542Y0070551D02*
X0174545Y0073554D01*
X0176146Y0072053D02*
X0177647Y0073554D01*
X0177647Y0069050D01*
X0176146Y0069050D02*
X0179149Y0069050D01*
X0174545Y0069050D02*
X0172293Y0071302D01*
X0171542Y0073554D02*
X0171542Y0069050D01*
X0183746Y0061053D02*
X0183746Y0058050D01*
X0185998Y0058050D01*
X0185247Y0059551D01*
X0185247Y0060302D01*
X0185998Y0061053D01*
X0187499Y0061053D01*
X0188250Y0060302D01*
X0188250Y0058801D01*
X0187499Y0058050D01*
X0202000Y0091090D02*
X0202000Y0092050D01*
X0200125Y0092050D01*
X0202000Y0092050D02*
X0203875Y0092050D01*
X0202000Y0092050D02*
X0200125Y0094550D01*
X0202000Y0094550D01*
X0202000Y0095510D01*
X0202000Y0094550D02*
X0203875Y0094550D01*
X0202000Y0092050D01*
X0202000Y0120090D02*
X0202000Y0121050D01*
X0200125Y0121050D01*
X0202000Y0121050D02*
X0203875Y0121050D01*
X0202000Y0121050D02*
X0200125Y0123550D01*
X0202000Y0123550D01*
X0202000Y0124510D01*
X0202000Y0123550D02*
X0203875Y0123550D01*
X0202000Y0121050D01*
X0180250Y0162425D02*
X0180250Y0164300D01*
X0181210Y0164300D01*
X0180250Y0164300D02*
X0180250Y0166175D01*
X0177750Y0164300D01*
X0176790Y0164300D01*
X0177750Y0164300D02*
X0177750Y0162425D01*
X0177750Y0164300D02*
X0177750Y0166175D01*
X0177750Y0164300D02*
X0180250Y0162425D01*
X0159210Y0164300D02*
X0158250Y0164300D01*
X0158250Y0162425D01*
X0158250Y0164300D02*
X0158250Y0166175D01*
X0158250Y0164300D02*
X0155750Y0162425D01*
X0155750Y0164300D01*
X0154790Y0164300D01*
X0155750Y0164300D02*
X0155750Y0166175D01*
X0158250Y0164300D01*
X0095356Y0169550D02*
X0092354Y0169550D01*
X0093855Y0169550D02*
X0093855Y0174054D01*
X0092354Y0172553D01*
X0090753Y0174054D02*
X0087750Y0171051D01*
X0088501Y0171802D02*
X0090753Y0169550D01*
X0087750Y0169550D02*
X0087750Y0174054D01*
X0035356Y0173303D02*
X0035356Y0172553D01*
X0034606Y0171802D01*
X0035356Y0171051D01*
X0035356Y0170301D01*
X0034606Y0169550D01*
X0033105Y0169550D01*
X0032354Y0170301D01*
X0030753Y0169550D02*
X0028501Y0171802D01*
X0027750Y0171051D02*
X0030753Y0174054D01*
X0032354Y0173303D02*
X0033105Y0174054D01*
X0034606Y0174054D01*
X0035356Y0173303D01*
X0034606Y0171802D02*
X0033855Y0171802D01*
X0027750Y0174054D02*
X0027750Y0169550D01*
X0206250Y0021053D02*
X0206250Y0018050D01*
X0206250Y0019551D02*
X0201746Y0019551D01*
X0203247Y0018050D01*
X0198147Y0013554D02*
X0198147Y0009050D01*
X0196646Y0009050D02*
X0199649Y0009050D01*
X0202750Y0007303D02*
X0202750Y0006553D01*
X0203501Y0005802D01*
X0205002Y0005802D01*
X0205753Y0005051D01*
X0205753Y0004301D01*
X0205002Y0003550D01*
X0203501Y0003550D01*
X0202750Y0004301D01*
X0202750Y0007303D02*
X0203501Y0008054D01*
X0205002Y0008054D01*
X0205753Y0007303D01*
X0207354Y0008054D02*
X0209606Y0008054D01*
X0210356Y0007303D01*
X0210356Y0005802D01*
X0209606Y0005051D01*
X0207354Y0005051D01*
X0207354Y0003550D02*
X0207354Y0008054D01*
X0211958Y0007303D02*
X0212708Y0008054D01*
X0214210Y0008054D01*
X0214960Y0007303D01*
X0214960Y0006553D01*
X0211958Y0003550D01*
X0214960Y0003550D01*
X0198147Y0013554D02*
X0196646Y0012053D01*
X0195045Y0013554D02*
X0195045Y0010551D01*
X0193543Y0009050D01*
X0192042Y0010551D01*
X0192042Y0013554D01*
X0190441Y0012803D02*
X0189690Y0013554D01*
X0188189Y0013554D01*
X0187438Y0012803D01*
X0187438Y0012053D01*
X0188189Y0011302D01*
X0189690Y0011302D01*
X0190441Y0010551D01*
X0190441Y0009801D01*
X0189690Y0009050D01*
X0188189Y0009050D01*
X0187438Y0009801D01*
D14*
X0139950Y0025650D02*
X0139950Y0027752D01*
X0139950Y0026701D02*
X0133645Y0026701D01*
X0133645Y0025650D02*
X0133645Y0027752D01*
X0134696Y0029947D02*
X0138899Y0029947D01*
X0139950Y0030998D01*
X0139950Y0033100D01*
X0138899Y0034151D01*
X0134696Y0034151D02*
X0133645Y0033100D01*
X0133645Y0030998D01*
X0134696Y0029947D01*
X0135746Y0036392D02*
X0133645Y0038494D01*
X0139950Y0038494D01*
X0139950Y0036392D02*
X0139950Y0040596D01*
X0083946Y0038960D02*
X0080369Y0038960D01*
X0083946Y0038960D02*
X0083946Y0049640D01*
X0078687Y0049672D02*
X0077274Y0049672D01*
X0072781Y0049672D02*
X0071369Y0049672D01*
X0066054Y0049640D02*
X0066054Y0038960D01*
X0069631Y0038960D01*
D15*
X0044307Y0025891D02*
X0044309Y0026044D01*
X0044315Y0026198D01*
X0044325Y0026351D01*
X0044339Y0026503D01*
X0044357Y0026656D01*
X0044379Y0026807D01*
X0044404Y0026958D01*
X0044434Y0027109D01*
X0044468Y0027259D01*
X0044505Y0027407D01*
X0044546Y0027555D01*
X0044591Y0027701D01*
X0044640Y0027847D01*
X0044693Y0027991D01*
X0044749Y0028133D01*
X0044809Y0028274D01*
X0044873Y0028414D01*
X0044940Y0028552D01*
X0045011Y0028688D01*
X0045086Y0028822D01*
X0045163Y0028954D01*
X0045245Y0029084D01*
X0045329Y0029212D01*
X0045417Y0029338D01*
X0045508Y0029461D01*
X0045602Y0029582D01*
X0045700Y0029700D01*
X0045800Y0029816D01*
X0045904Y0029929D01*
X0046010Y0030040D01*
X0046119Y0030148D01*
X0046231Y0030253D01*
X0046345Y0030354D01*
X0046463Y0030453D01*
X0046582Y0030549D01*
X0046704Y0030642D01*
X0046829Y0030731D01*
X0046956Y0030818D01*
X0047085Y0030900D01*
X0047216Y0030980D01*
X0047349Y0031056D01*
X0047484Y0031129D01*
X0047621Y0031198D01*
X0047760Y0031263D01*
X0047900Y0031325D01*
X0048042Y0031383D01*
X0048185Y0031438D01*
X0048330Y0031489D01*
X0048476Y0031536D01*
X0048623Y0031579D01*
X0048771Y0031618D01*
X0048920Y0031654D01*
X0049070Y0031685D01*
X0049221Y0031713D01*
X0049372Y0031737D01*
X0049525Y0031757D01*
X0049677Y0031773D01*
X0049830Y0031785D01*
X0049983Y0031793D01*
X0050136Y0031797D01*
X0050290Y0031797D01*
X0050443Y0031793D01*
X0050596Y0031785D01*
X0050749Y0031773D01*
X0050901Y0031757D01*
X0051054Y0031737D01*
X0051205Y0031713D01*
X0051356Y0031685D01*
X0051506Y0031654D01*
X0051655Y0031618D01*
X0051803Y0031579D01*
X0051950Y0031536D01*
X0052096Y0031489D01*
X0052241Y0031438D01*
X0052384Y0031383D01*
X0052526Y0031325D01*
X0052666Y0031263D01*
X0052805Y0031198D01*
X0052942Y0031129D01*
X0053077Y0031056D01*
X0053210Y0030980D01*
X0053341Y0030900D01*
X0053470Y0030818D01*
X0053597Y0030731D01*
X0053722Y0030642D01*
X0053844Y0030549D01*
X0053963Y0030453D01*
X0054081Y0030354D01*
X0054195Y0030253D01*
X0054307Y0030148D01*
X0054416Y0030040D01*
X0054522Y0029929D01*
X0054626Y0029816D01*
X0054726Y0029700D01*
X0054824Y0029582D01*
X0054918Y0029461D01*
X0055009Y0029338D01*
X0055097Y0029212D01*
X0055181Y0029084D01*
X0055263Y0028954D01*
X0055340Y0028822D01*
X0055415Y0028688D01*
X0055486Y0028552D01*
X0055553Y0028414D01*
X0055617Y0028274D01*
X0055677Y0028133D01*
X0055733Y0027991D01*
X0055786Y0027847D01*
X0055835Y0027701D01*
X0055880Y0027555D01*
X0055921Y0027407D01*
X0055958Y0027259D01*
X0055992Y0027109D01*
X0056022Y0026958D01*
X0056047Y0026807D01*
X0056069Y0026656D01*
X0056087Y0026503D01*
X0056101Y0026351D01*
X0056111Y0026198D01*
X0056117Y0026044D01*
X0056119Y0025891D01*
X0056117Y0025738D01*
X0056111Y0025584D01*
X0056101Y0025431D01*
X0056087Y0025279D01*
X0056069Y0025126D01*
X0056047Y0024975D01*
X0056022Y0024824D01*
X0055992Y0024673D01*
X0055958Y0024523D01*
X0055921Y0024375D01*
X0055880Y0024227D01*
X0055835Y0024081D01*
X0055786Y0023935D01*
X0055733Y0023791D01*
X0055677Y0023649D01*
X0055617Y0023508D01*
X0055553Y0023368D01*
X0055486Y0023230D01*
X0055415Y0023094D01*
X0055340Y0022960D01*
X0055263Y0022828D01*
X0055181Y0022698D01*
X0055097Y0022570D01*
X0055009Y0022444D01*
X0054918Y0022321D01*
X0054824Y0022200D01*
X0054726Y0022082D01*
X0054626Y0021966D01*
X0054522Y0021853D01*
X0054416Y0021742D01*
X0054307Y0021634D01*
X0054195Y0021529D01*
X0054081Y0021428D01*
X0053963Y0021329D01*
X0053844Y0021233D01*
X0053722Y0021140D01*
X0053597Y0021051D01*
X0053470Y0020964D01*
X0053341Y0020882D01*
X0053210Y0020802D01*
X0053077Y0020726D01*
X0052942Y0020653D01*
X0052805Y0020584D01*
X0052666Y0020519D01*
X0052526Y0020457D01*
X0052384Y0020399D01*
X0052241Y0020344D01*
X0052096Y0020293D01*
X0051950Y0020246D01*
X0051803Y0020203D01*
X0051655Y0020164D01*
X0051506Y0020128D01*
X0051356Y0020097D01*
X0051205Y0020069D01*
X0051054Y0020045D01*
X0050901Y0020025D01*
X0050749Y0020009D01*
X0050596Y0019997D01*
X0050443Y0019989D01*
X0050290Y0019985D01*
X0050136Y0019985D01*
X0049983Y0019989D01*
X0049830Y0019997D01*
X0049677Y0020009D01*
X0049525Y0020025D01*
X0049372Y0020045D01*
X0049221Y0020069D01*
X0049070Y0020097D01*
X0048920Y0020128D01*
X0048771Y0020164D01*
X0048623Y0020203D01*
X0048476Y0020246D01*
X0048330Y0020293D01*
X0048185Y0020344D01*
X0048042Y0020399D01*
X0047900Y0020457D01*
X0047760Y0020519D01*
X0047621Y0020584D01*
X0047484Y0020653D01*
X0047349Y0020726D01*
X0047216Y0020802D01*
X0047085Y0020882D01*
X0046956Y0020964D01*
X0046829Y0021051D01*
X0046704Y0021140D01*
X0046582Y0021233D01*
X0046463Y0021329D01*
X0046345Y0021428D01*
X0046231Y0021529D01*
X0046119Y0021634D01*
X0046010Y0021742D01*
X0045904Y0021853D01*
X0045800Y0021966D01*
X0045700Y0022082D01*
X0045602Y0022200D01*
X0045508Y0022321D01*
X0045417Y0022444D01*
X0045329Y0022570D01*
X0045245Y0022698D01*
X0045163Y0022828D01*
X0045086Y0022960D01*
X0045011Y0023094D01*
X0044940Y0023230D01*
X0044873Y0023368D01*
X0044809Y0023508D01*
X0044749Y0023649D01*
X0044693Y0023791D01*
X0044640Y0023935D01*
X0044591Y0024081D01*
X0044546Y0024227D01*
X0044505Y0024375D01*
X0044468Y0024523D01*
X0044434Y0024673D01*
X0044404Y0024824D01*
X0044379Y0024975D01*
X0044357Y0025126D01*
X0044339Y0025279D01*
X0044325Y0025431D01*
X0044315Y0025584D01*
X0044309Y0025738D01*
X0044307Y0025891D01*
X0117610Y0022989D02*
X0117610Y0046611D01*
X0119579Y0046611D01*
X0121547Y0039721D02*
X0121547Y0030076D01*
X0127453Y0029879D02*
X0127453Y0039721D01*
X0129421Y0046611D02*
X0131390Y0046611D01*
X0131390Y0022989D01*
X0129421Y0022989D01*
X0119579Y0022989D02*
X0117610Y0022989D01*
X0072469Y0089938D02*
X0072469Y0094662D01*
X0068531Y0092300D01*
X0072469Y0089938D01*
X0201787Y0151875D02*
X0201789Y0152028D01*
X0201795Y0152182D01*
X0201805Y0152335D01*
X0201819Y0152487D01*
X0201837Y0152640D01*
X0201859Y0152791D01*
X0201884Y0152942D01*
X0201914Y0153093D01*
X0201948Y0153243D01*
X0201985Y0153391D01*
X0202026Y0153539D01*
X0202071Y0153685D01*
X0202120Y0153831D01*
X0202173Y0153975D01*
X0202229Y0154117D01*
X0202289Y0154258D01*
X0202353Y0154398D01*
X0202420Y0154536D01*
X0202491Y0154672D01*
X0202566Y0154806D01*
X0202643Y0154938D01*
X0202725Y0155068D01*
X0202809Y0155196D01*
X0202897Y0155322D01*
X0202988Y0155445D01*
X0203082Y0155566D01*
X0203180Y0155684D01*
X0203280Y0155800D01*
X0203384Y0155913D01*
X0203490Y0156024D01*
X0203599Y0156132D01*
X0203711Y0156237D01*
X0203825Y0156338D01*
X0203943Y0156437D01*
X0204062Y0156533D01*
X0204184Y0156626D01*
X0204309Y0156715D01*
X0204436Y0156802D01*
X0204565Y0156884D01*
X0204696Y0156964D01*
X0204829Y0157040D01*
X0204964Y0157113D01*
X0205101Y0157182D01*
X0205240Y0157247D01*
X0205380Y0157309D01*
X0205522Y0157367D01*
X0205665Y0157422D01*
X0205810Y0157473D01*
X0205956Y0157520D01*
X0206103Y0157563D01*
X0206251Y0157602D01*
X0206400Y0157638D01*
X0206550Y0157669D01*
X0206701Y0157697D01*
X0206852Y0157721D01*
X0207005Y0157741D01*
X0207157Y0157757D01*
X0207310Y0157769D01*
X0207463Y0157777D01*
X0207616Y0157781D01*
X0207770Y0157781D01*
X0207923Y0157777D01*
X0208076Y0157769D01*
X0208229Y0157757D01*
X0208381Y0157741D01*
X0208534Y0157721D01*
X0208685Y0157697D01*
X0208836Y0157669D01*
X0208986Y0157638D01*
X0209135Y0157602D01*
X0209283Y0157563D01*
X0209430Y0157520D01*
X0209576Y0157473D01*
X0209721Y0157422D01*
X0209864Y0157367D01*
X0210006Y0157309D01*
X0210146Y0157247D01*
X0210285Y0157182D01*
X0210422Y0157113D01*
X0210557Y0157040D01*
X0210690Y0156964D01*
X0210821Y0156884D01*
X0210950Y0156802D01*
X0211077Y0156715D01*
X0211202Y0156626D01*
X0211324Y0156533D01*
X0211443Y0156437D01*
X0211561Y0156338D01*
X0211675Y0156237D01*
X0211787Y0156132D01*
X0211896Y0156024D01*
X0212002Y0155913D01*
X0212106Y0155800D01*
X0212206Y0155684D01*
X0212304Y0155566D01*
X0212398Y0155445D01*
X0212489Y0155322D01*
X0212577Y0155196D01*
X0212661Y0155068D01*
X0212743Y0154938D01*
X0212820Y0154806D01*
X0212895Y0154672D01*
X0212966Y0154536D01*
X0213033Y0154398D01*
X0213097Y0154258D01*
X0213157Y0154117D01*
X0213213Y0153975D01*
X0213266Y0153831D01*
X0213315Y0153685D01*
X0213360Y0153539D01*
X0213401Y0153391D01*
X0213438Y0153243D01*
X0213472Y0153093D01*
X0213502Y0152942D01*
X0213527Y0152791D01*
X0213549Y0152640D01*
X0213567Y0152487D01*
X0213581Y0152335D01*
X0213591Y0152182D01*
X0213597Y0152028D01*
X0213599Y0151875D01*
X0213597Y0151722D01*
X0213591Y0151568D01*
X0213581Y0151415D01*
X0213567Y0151263D01*
X0213549Y0151110D01*
X0213527Y0150959D01*
X0213502Y0150808D01*
X0213472Y0150657D01*
X0213438Y0150507D01*
X0213401Y0150359D01*
X0213360Y0150211D01*
X0213315Y0150065D01*
X0213266Y0149919D01*
X0213213Y0149775D01*
X0213157Y0149633D01*
X0213097Y0149492D01*
X0213033Y0149352D01*
X0212966Y0149214D01*
X0212895Y0149078D01*
X0212820Y0148944D01*
X0212743Y0148812D01*
X0212661Y0148682D01*
X0212577Y0148554D01*
X0212489Y0148428D01*
X0212398Y0148305D01*
X0212304Y0148184D01*
X0212206Y0148066D01*
X0212106Y0147950D01*
X0212002Y0147837D01*
X0211896Y0147726D01*
X0211787Y0147618D01*
X0211675Y0147513D01*
X0211561Y0147412D01*
X0211443Y0147313D01*
X0211324Y0147217D01*
X0211202Y0147124D01*
X0211077Y0147035D01*
X0210950Y0146948D01*
X0210821Y0146866D01*
X0210690Y0146786D01*
X0210557Y0146710D01*
X0210422Y0146637D01*
X0210285Y0146568D01*
X0210146Y0146503D01*
X0210006Y0146441D01*
X0209864Y0146383D01*
X0209721Y0146328D01*
X0209576Y0146277D01*
X0209430Y0146230D01*
X0209283Y0146187D01*
X0209135Y0146148D01*
X0208986Y0146112D01*
X0208836Y0146081D01*
X0208685Y0146053D01*
X0208534Y0146029D01*
X0208381Y0146009D01*
X0208229Y0145993D01*
X0208076Y0145981D01*
X0207923Y0145973D01*
X0207770Y0145969D01*
X0207616Y0145969D01*
X0207463Y0145973D01*
X0207310Y0145981D01*
X0207157Y0145993D01*
X0207005Y0146009D01*
X0206852Y0146029D01*
X0206701Y0146053D01*
X0206550Y0146081D01*
X0206400Y0146112D01*
X0206251Y0146148D01*
X0206103Y0146187D01*
X0205956Y0146230D01*
X0205810Y0146277D01*
X0205665Y0146328D01*
X0205522Y0146383D01*
X0205380Y0146441D01*
X0205240Y0146503D01*
X0205101Y0146568D01*
X0204964Y0146637D01*
X0204829Y0146710D01*
X0204696Y0146786D01*
X0204565Y0146866D01*
X0204436Y0146948D01*
X0204309Y0147035D01*
X0204184Y0147124D01*
X0204062Y0147217D01*
X0203943Y0147313D01*
X0203825Y0147412D01*
X0203711Y0147513D01*
X0203599Y0147618D01*
X0203490Y0147726D01*
X0203384Y0147837D01*
X0203280Y0147950D01*
X0203180Y0148066D01*
X0203082Y0148184D01*
X0202988Y0148305D01*
X0202897Y0148428D01*
X0202809Y0148554D01*
X0202725Y0148682D01*
X0202643Y0148812D01*
X0202566Y0148944D01*
X0202491Y0149078D01*
X0202420Y0149214D01*
X0202353Y0149352D01*
X0202289Y0149492D01*
X0202229Y0149633D01*
X0202173Y0149775D01*
X0202120Y0149919D01*
X0202071Y0150065D01*
X0202026Y0150211D01*
X0201985Y0150359D01*
X0201948Y0150507D01*
X0201914Y0150657D01*
X0201884Y0150808D01*
X0201859Y0150959D01*
X0201837Y0151110D01*
X0201819Y0151263D01*
X0201805Y0151415D01*
X0201795Y0151568D01*
X0201789Y0151722D01*
X0201787Y0151875D01*
D16*
X0027150Y0051300D02*
X0021441Y0055040D01*
X0021441Y0047560D01*
X0027150Y0051300D01*
D17*
X0027346Y0051300D03*
D18*
X0067800Y0092300D03*
M02*
